STARTFONT 2.1
COMMENT $XFree86$
COMMENT ISO10646-1 extension by Markus Kuhn <mkuhn@acm.org>, 2001-03-20
COMMENT  (c) Copyright Bigelow & Holmes 1986, 1985. Lucida is a registered
COMMENT  trademark of Bigelow & Holmes. See LEGAL NOTICE file for terms 
COMMENT  of the license. 
COMMENT GRID 0018 0018 0200 0200
FONT -B&H-Lucida-Medium-R-Normal-Sans-18-180-75-75-P-106-ISO10646-1
SIZE 18 72 72
FONTBOUNDINGBOX 19 26 -1 -6
STARTPROPERTIES 22
COMMENT Begin LogicalFontDescription
FONTNAME_REGISTRY ""
FOUNDRY "B&H"
FAMILY_NAME "Lucida"
WEIGHT_NAME "Medium"
SLANT "R"
SETWIDTH_NAME "Normal"
ADD_STYLE_NAME "Sans"
PIXEL_SIZE 18
POINT_SIZE 180
RESOLUTION_X 75
RESOLUTION_Y 75
SPACING "P"
AVERAGE_WIDTH 106
CHARSET_REGISTRY "ISO10646"
CHARSET_ENCODING "1"
COMMENT END LogicalFontDescription
FONT_ASCENT 16
FONT_DESCENT 3
DEFAULT_CHAR 0
COPYRIGHT "Copyright Bigelow & Holmes 1986, 1985."
FACE_NAME "Lucida Sans"
X_HEIGHT 10
CAP_HEIGHT 13
ENDPROPERTIES
CHARS 756
STARTCHAR char0
ENCODING 0
SWIDTH 735 0
DWIDTH 14 0
BBX 9 13 2 0
BITMAP
AA80
0000
8080
0000
8080
0000
8080
0000
8080
0000
8080
0000
AA80
ENDCHAR
STARTCHAR space
ENCODING 32
SWIDTH 316 0
DWIDTH 5 0
BBX 1 1 0 0
BITMAP
00
ENDCHAR
STARTCHAR exclam
ENCODING 33
SWIDTH 205 0
DWIDTH 4 0
BBX 2 13 1 0
BITMAP
C0
C0
C0
C0
C0
C0
C0
C0
40
00
00
C0
C0
ENDCHAR
STARTCHAR quotedbl
ENCODING 34
SWIDTH 373 0
DWIDTH 7 0
BBX 5 4 1 10
BITMAP
D8
D8
90
90
ENDCHAR
STARTCHAR numbersign
ENCODING 35
SWIDTH 633 0
DWIDTH 12 0
BBX 11 13 1 0
BITMAP
0CC0
0CC0
0CC0
0880
7FE0
1100
3300
3300
FFC0
2200
6600
6600
6600
ENDCHAR
STARTCHAR dollar
ENCODING 36
SWIDTH 633 0
DWIDTH 12 0
BBX 8 15 3 -1
BITMAP
08
3E
4B
C8
C8
E8
78
3C
1E
17
13
13
D2
7C
10
ENDCHAR
STARTCHAR percent
ENCODING 37
SWIDTH 669 0
DWIDTH 13 0
BBX 11 13 1 0
BITMAP
7000
D840
88C0
8980
8900
DA00
75C0
0B60
1220
3220
6220
4360
01C0
ENDCHAR
STARTCHAR ampersand
ENCODING 38
SWIDTH 697 0
DWIDTH 13 0
BBX 12 13 1 0
BITMAP
3E00
6300
6300
6200
3400
1800
2C60
6660
C340
C180
C1C0
6360
3C30
ENDCHAR
STARTCHAR quotesingle
ENCODING 39
SWIDTH 229 0
DWIDTH 4 0
BBX 2 4 1 10
BITMAP
C0
C0
80
80
ENDCHAR
STARTCHAR parenleft
ENCODING 40
SWIDTH 325 0
DWIDTH 6 0
BBX 4 16 1 -2
BITMAP
10
20
60
40
C0
C0
C0
C0
C0
C0
C0
C0
40
60
20
10
ENDCHAR
STARTCHAR parenright
ENCODING 41
SWIDTH 325 0
DWIDTH 6 0
BBX 4 16 1 -2
BITMAP
80
40
60
20
30
30
30
30
30
30
30
30
20
60
40
80
ENDCHAR
STARTCHAR asterisk
ENCODING 42
SWIDTH 482 0
DWIDTH 9 0
BBX 7 7 1 6
BITMAP
10
10
92
EE
10
6C
44
ENDCHAR
STARTCHAR plus
ENCODING 43
SWIDTH 633 0
DWIDTH 12 0
BBX 9 9 2 1
BITMAP
0800
0800
0800
0800
FF80
0800
0800
0800
0800
ENDCHAR
STARTCHAR comma
ENCODING 44
SWIDTH 316 0
DWIDTH 4 0
BBX 2 4 1 -2
BITMAP
C0
C0
40
80
ENDCHAR
STARTCHAR hyphen
ENCODING 45
SWIDTH 325 0
DWIDTH 6 0
BBX 4 1 1 5
BITMAP
F0
ENDCHAR
STARTCHAR period
ENCODING 46
SWIDTH 316 0
DWIDTH 4 0
BBX 2 2 1 0
BITMAP
C0
C0
ENDCHAR
STARTCHAR slash
ENCODING 47
SWIDTH 494 0
DWIDTH 9 0
BBX 7 16 1 -2
BITMAP
02
02
06
04
0C
08
08
18
10
30
20
60
40
C0
80
80
ENDCHAR
STARTCHAR zero
ENCODING 48
SWIDTH 633 0
DWIDTH 12 0
BBX 9 13 2 0
BITMAP
3E00
6300
4100
C180
C180
C180
C180
C180
C180
C180
4100
6300
3E00
ENDCHAR
STARTCHAR one
ENCODING 49
SWIDTH 633 0
DWIDTH 12 0
BBX 5 13 3 0
BITMAP
18
F8
18
18
18
18
18
18
18
18
18
18
18
ENDCHAR
STARTCHAR two
ENCODING 50
SWIDTH 633 0
DWIDTH 12 0
BBX 8 13 2 0
BITMAP
7E
C7
03
03
03
06
0C
18
30
60
C0
FF
FF
ENDCHAR
STARTCHAR three
ENCODING 51
SWIDTH 633 0
DWIDTH 11 0
BBX 8 13 1 0
BITMAP
7E
C7
03
03
06
3C
06
03
03
03
03
C7
7E
ENDCHAR
STARTCHAR four
ENCODING 52
SWIDTH 633 0
DWIDTH 12 0
BBX 11 13 1 0
BITMAP
0180
0380
0780
0D80
0980
1180
3180
6180
C180
FFE0
0180
0180
0180
ENDCHAR
STARTCHAR five
ENCODING 53
SWIDTH 633 0
DWIDTH 12 0
BBX 8 13 3 0
BITMAP
FF
FF
80
80
80
F8
1E
07
03
03
03
C7
7E
ENDCHAR
STARTCHAR six
ENCODING 54
SWIDTH 633 0
DWIDTH 12 0
BBX 9 13 2 0
BITMAP
1E00
7300
6000
C000
C000
DE00
E300
C180
C180
C180
C180
6300
3E00
ENDCHAR
STARTCHAR seven
ENCODING 55
SWIDTH 633 0
DWIDTH 12 0
BBX 9 13 2 0
BITMAP
FF80
FF80
0180
0300
0600
0600
0C00
1800
1800
3000
3000
6000
6000
ENDCHAR
STARTCHAR eight
ENCODING 56
SWIDTH 633 0
DWIDTH 12 0
BBX 9 13 2 0
BITMAP
3E00
6300
C180
C180
E100
7A00
3E00
6700
C380
C180
C180
6300
3E00
ENDCHAR
STARTCHAR nine
ENCODING 57
SWIDTH 633 0
DWIDTH 12 0
BBX 9 13 2 0
BITMAP
3E00
6300
C180
C180
C180
C180
6380
3D80
0180
0100
0300
C600
7C00
ENDCHAR
STARTCHAR colon
ENCODING 58
SWIDTH 316 0
DWIDTH 4 0
BBX 2 10 1 0
BITMAP
C0
C0
00
00
00
00
00
00
C0
C0
ENDCHAR
STARTCHAR semicolon
ENCODING 59
SWIDTH 316 0
DWIDTH 4 0
BBX 2 12 1 -2
BITMAP
C0
C0
00
00
00
00
00
00
C0
C0
40
80
ENDCHAR
STARTCHAR less
ENCODING 60
SWIDTH 633 0
DWIDTH 12 0
BBX 10 9 1 1
BITMAP
00C0
0380
0E00
3800
E000
3800
0E00
0380
00C0
ENDCHAR
STARTCHAR equal
ENCODING 61
SWIDTH 633 0
DWIDTH 12 0
BBX 9 4 2 3
BITMAP
FF80
0000
0000
FF80
ENDCHAR
STARTCHAR greater
ENCODING 62
SWIDTH 633 0
DWIDTH 12 0
BBX 10 9 1 1
BITMAP
C000
7000
1C00
0700
01C0
0700
1C00
7000
C000
ENDCHAR
STARTCHAR question
ENCODING 63
SWIDTH 422 0
DWIDTH 8 0
BBX 7 13 1 0
BITMAP
7C
CE
06
06
0C
30
60
60
60
00
00
60
60
ENDCHAR
STARTCHAR at
ENCODING 64
SWIDTH 858 0
DWIDTH 16 0
BBX 14 13 1 0
BITMAP
07E0
1C38
3008
63EC
4464
C864
98C4
99CC
DAD8
4CF0
6000
3800
0FC0
ENDCHAR
STARTCHAR A
ENCODING 65
SWIDTH 690 0
DWIDTH 13 0
BBX 11 13 1 0
BITMAP
0600
0600
0F00
0B00
1980
1180
3180
20C0
7FC0
60C0
4060
C060
C060
ENDCHAR
STARTCHAR B
ENCODING 66
SWIDTH 575 0
DWIDTH 11 0
BBX 8 13 2 0
BITMAP
FE
C7
C3
C3
C3
C6
FC
C6
C3
C3
C3
C7
FE
ENDCHAR
STARTCHAR C
ENCODING 67
SWIDTH 692 0
DWIDTH 13 0
BBX 11 13 1 0
BITMAP
0FC0
38E0
6000
6000
C000
C000
C000
C000
C000
6000
7000
38E0
0FC0
ENDCHAR
STARTCHAR D
ENCODING 68
SWIDTH 749 0
DWIDTH 14 0
BBX 11 13 2 0
BITMAP
FF00
C1C0
C0C0
C060
C060
C060
C060
C060
C060
C0C0
C0C0
C380
FE00
ENDCHAR
STARTCHAR E
ENCODING 69
SWIDTH 542 0
DWIDTH 10 0
BBX 7 13 2 0
BITMAP
FE
C0
C0
C0
C0
C0
FC
C0
C0
C0
C0
C0
FE
ENDCHAR
STARTCHAR F
ENCODING 70
SWIDTH 536 0
DWIDTH 10 0
BBX 7 13 2 0
BITMAP
FE
C0
C0
C0
C0
C0
FC
C0
C0
C0
C0
C0
C0
ENDCHAR
STARTCHAR G
ENCODING 71
SWIDTH 723 0
DWIDTH 13 0
BBX 11 13 1 0
BITMAP
0FC0
38E0
6000
6000
C000
C000
C000
C060
C060
6060
7060
3860
0FE0
ENDCHAR
STARTCHAR H
ENCODING 72
SWIDTH 735 0
DWIDTH 14 0
BBX 10 13 2 0
BITMAP
C0C0
C0C0
C0C0
C0C0
C0C0
C0C0
FFC0
C0C0
C0C0
C0C0
C0C0
C0C0
C0C0
ENDCHAR
STARTCHAR I
ENCODING 73
SWIDTH 288 0
DWIDTH 6 0
BBX 2 13 2 0
BITMAP
C0
C0
C0
C0
C0
C0
C0
C0
C0
C0
C0
C0
C0
ENDCHAR
STARTCHAR J
ENCODING 74
SWIDTH 311 0
DWIDTH 6 0
BBX 5 15 -1 -2
BITMAP
18
18
18
18
18
18
18
18
18
18
18
18
18
30
E0
ENDCHAR
STARTCHAR K
ENCODING 75
SWIDTH 653 0
DWIDTH 12 0
BBX 10 13 2 0
BITMAP
C180
C300
C600
CC00
D800
F000
F000
D800
CC00
C600
C300
C180
C0C0
ENDCHAR
STARTCHAR L
ENCODING 76
SWIDTH 533 0
DWIDTH 10 0
BBX 7 13 2 0
BITMAP
C0
C0
C0
C0
C0
C0
C0
C0
C0
C0
C0
C0
FE
ENDCHAR
STARTCHAR M
ENCODING 77
SWIDTH 861 0
DWIDTH 16 0
BBX 12 13 2 0
BITMAP
E070
E070
B0B0
B0B0
B0B0
9930
9930
9930
8E30
8E30
8430
8430
8030
ENDCHAR
STARTCHAR N
ENCODING 78
SWIDTH 741 0
DWIDTH 14 0
BBX 10 13 2 0
BITMAP
C040
E040
F040
B040
9840
9C40
8C40
8640
8740
8340
81C0
81C0
80C0
ENDCHAR
STARTCHAR O
ENCODING 79
SWIDTH 777 0
DWIDTH 14 0
BBX 12 13 1 0
BITMAP
0F00
39C0
6060
6060
C030
C030
C030
C030
C030
6060
6060
39C0
0F00
ENDCHAR
STARTCHAR P
ENCODING 80
SWIDTH 553 0
DWIDTH 11 0
BBX 8 13 2 0
BITMAP
FE
C7
C3
C3
C3
C3
C6
F8
C0
C0
C0
C0
C0
ENDCHAR
STARTCHAR Q
ENCODING 81
SWIDTH 777 0
DWIDTH 14 0
BBX 13 16 1 -3
BITMAP
0F00
39C0
6060
6060
C030
C030
C030
C030
C030
6060
6060
39C0
0F00
01C0
0070
0038
ENDCHAR
STARTCHAR R
ENCODING 82
SWIDTH 633 0
DWIDTH 12 0
BBX 9 13 2 0
BITMAP
FE00
C700
C300
C300
C300
C600
F800
CC00
C600
C600
C300
C180
C180
ENDCHAR
STARTCHAR S
ENCODING 83
SWIDTH 539 0
DWIDTH 10 0
BBX 8 13 1 0
BITMAP
3E
67
C0
C0
E0
78
1E
07
03
03
03
E6
7C
ENDCHAR
STARTCHAR T
ENCODING 84
SWIDTH 633 0
DWIDTH 12 0
BBX 12 13 0 0
BITMAP
FFF0
0600
0600
0600
0600
0600
0600
0600
0600
0600
0600
0600
0600
ENDCHAR
STARTCHAR U
ENCODING 85
SWIDTH 693 0
DWIDTH 13 0
BBX 9 13 2 0
BITMAP
C180
C180
C180
C180
C180
C180
C180
C180
C180
C180
6300
7700
1C00
ENDCHAR
STARTCHAR V
ENCODING 86
SWIDTH 654 0
DWIDTH 12 0
BBX 10 13 1 0
BITMAP
C0C0
C0C0
C0C0
6080
6180
6180
3100
3300
3300
1A00
1E00
0C00
0C00
ENDCHAR
STARTCHAR W
ENCODING 87
SWIDTH 855 0
DWIDTH 16 0
BBX 14 13 1 0
BITMAP
C00C
C30C
C30C
C78C
C598
6598
6CD8
68D0
68D0
38F0
3060
3060
3060
ENDCHAR
STARTCHAR X
ENCODING 88
SWIDTH 626 0
DWIDTH 11 0
BBX 9 13 1 0
BITMAP
C180
C180
6180
6300
3200
1C00
1C00
1C00
2600
6300
C300
C180
C180
ENDCHAR
STARTCHAR Y
ENCODING 89
SWIDTH 623 0
DWIDTH 12 0
BBX 10 13 1 0
BITMAP
C0C0
C0C0
6180
3100
3300
1E00
0C00
0C00
0C00
0C00
0C00
0C00
0C00
ENDCHAR
STARTCHAR Z
ENCODING 90
SWIDTH 605 0
DWIDTH 11 0
BBX 9 13 1 0
BITMAP
FF80
FF80
0180
0300
0600
0C00
1C00
1800
3000
6000
C000
FF80
FF80
ENDCHAR
STARTCHAR bracketleft
ENCODING 91
SWIDTH 325 0
DWIDTH 6 0
BBX 4 16 1 -2
BITMAP
F0
C0
C0
C0
C0
C0
C0
C0
C0
C0
C0
C0
C0
C0
C0
F0
ENDCHAR
STARTCHAR backslash
ENCODING 92
SWIDTH 494 0
DWIDTH 9 0
BBX 7 16 1 -2
BITMAP
80
80
C0
40
60
20
30
10
10
18
08
0C
04
06
02
02
ENDCHAR
STARTCHAR bracketright
ENCODING 93
SWIDTH 325 0
DWIDTH 6 0
BBX 4 16 1 -2
BITMAP
F0
30
30
30
30
30
30
30
30
30
30
30
30
30
30
F0
ENDCHAR
STARTCHAR asciicircum
ENCODING 94
SWIDTH 633 0
DWIDTH 12 0
BBX 9 10 2 2
BITMAP
0800
1C00
1400
3600
2200
6300
6300
C180
C180
C180
ENDCHAR
STARTCHAR underscore
ENCODING 95
SWIDTH 500 0
DWIDTH 12 0
BBX 10 1 1 -1
BITMAP
FFC0
ENDCHAR
STARTCHAR grave
ENCODING 96
SWIDTH 614 0
DWIDTH 11 0
BBX 4 2 3 11
BITMAP
E0
30
ENDCHAR
STARTCHAR a
ENCODING 97
SWIDTH 552 0
DWIDTH 10 0
BBX 9 10 1 0
BITMAP
3E00
6700
0300
0300
3F00
6300
C300
C300
E700
7980
ENDCHAR
STARTCHAR b
ENCODING 98
SWIDTH 630 0
DWIDTH 12 0
BBX 9 14 2 0
BITMAP
C000
C000
C000
C000
DC00
E700
C300
C180
C180
C180
C180
C300
E700
DC00
ENDCHAR
STARTCHAR c
ENCODING 99
SWIDTH 518 0
DWIDTH 10 0
BBX 8 10 1 0
BITMAP
1E
73
60
C0
C0
C0
C0
60
73
1E
ENDCHAR
STARTCHAR d
ENCODING 100
SWIDTH 630 0
DWIDTH 12 0
BBX 9 14 1 0
BITMAP
0180
0180
0180
0180
1D80
7380
6180
C180
C180
C180
C180
6180
7380
1D80
ENDCHAR
STARTCHAR e
ENCODING 101
SWIDTH 557 0
DWIDTH 10 0
BBX 8 10 1 0
BITMAP
3C
66
C3
C3
FF
C0
C0
E0
73
3E
ENDCHAR
STARTCHAR f
ENCODING 102
SWIDTH 367 0
DWIDTH 7 0
BBX 6 14 1 0
BITMAP
1C
30
60
60
FC
60
60
60
60
60
60
60
60
60
ENDCHAR
STARTCHAR g
ENCODING 103
SWIDTH 623 0
DWIDTH 12 0
BBX 9 13 1 -3
BITMAP
1D80
7380
6180
C180
C180
C180
C180
6380
3D80
0180
0180
6300
3E00
ENDCHAR
STARTCHAR h
ENCODING 104
SWIDTH 620 0
DWIDTH 12 0
BBX 8 14 2 0
BITMAP
C0
C0
C0
C0
DE
E7
C3
C3
C3
C3
C3
C3
C3
C3
ENDCHAR
STARTCHAR i
ENCODING 105
SWIDTH 289 0
DWIDTH 6 0
BBX 2 14 2 0
BITMAP
C0
C0
00
00
C0
C0
C0
C0
C0
C0
C0
C0
C0
C0
ENDCHAR
STARTCHAR j
ENCODING 106
SWIDTH 304 0
DWIDTH 6 0
BBX 4 17 0 -3
BITMAP
30
30
00
00
30
30
30
30
30
30
30
30
30
30
30
60
C0
ENDCHAR
STARTCHAR k
ENCODING 107
SWIDTH 585 0
DWIDTH 11 0
BBX 9 14 2 0
BITMAP
C000
C000
C000
C000
C300
C600
CC00
D800
F000
D800
CC00
C600
C300
C180
ENDCHAR
STARTCHAR l
ENCODING 108
SWIDTH 289 0
DWIDTH 6 0
BBX 2 14 2 0
BITMAP
C0
C0
C0
C0
C0
C0
C0
C0
C0
C0
C0
C0
C0
C0
ENDCHAR
STARTCHAR m
ENCODING 109
SWIDTH 934 0
DWIDTH 18 0
BBX 14 10 2 0
BITMAP
DE78
E79C
C30C
C30C
C30C
C30C
C30C
C30C
C30C
C30C
ENDCHAR
STARTCHAR n
ENCODING 110
SWIDTH 620 0
DWIDTH 12 0
BBX 8 10 2 0
BITMAP
DE
E7
C3
C3
C3
C3
C3
C3
C3
C3
ENDCHAR
STARTCHAR o
ENCODING 111
SWIDTH 614 0
DWIDTH 11 0
BBX 9 10 1 0
BITMAP
1C00
7700
6300
C180
C180
C180
C180
6300
7700
1C00
ENDCHAR
STARTCHAR p
ENCODING 112
SWIDTH 630 0
DWIDTH 12 0
BBX 9 13 2 -3
BITMAP
DC00
E700
C300
C180
C180
C180
C180
C300
E700
DC00
C000
C000
C000
ENDCHAR
STARTCHAR q
ENCODING 113
SWIDTH 630 0
DWIDTH 12 0
BBX 9 13 1 -3
BITMAP
1D80
7380
6180
C180
C180
C180
C180
6180
7380
1D80
0180
0180
0180
ENDCHAR
STARTCHAR r
ENCODING 114
SWIDTH 409 0
DWIDTH 8 0
BBX 6 10 2 0
BITMAP
CC
DC
E0
C0
C0
C0
C0
C0
C0
C0
ENDCHAR
STARTCHAR s
ENCODING 115
SWIDTH 510 0
DWIDTH 9 0
BBX 7 10 1 0
BITMAP
7C
C6
C0
E0
70
1C
0E
06
C6
7C
ENDCHAR
STARTCHAR t
ENCODING 116
SWIDTH 374 0
DWIDTH 7 0
BBX 5 12 1 0
BITMAP
60
60
F8
60
60
60
60
60
60
60
60
38
ENDCHAR
STARTCHAR u
ENCODING 117
SWIDTH 620 0
DWIDTH 12 0
BBX 8 10 2 0
BITMAP
C3
C3
C3
C3
C3
C3
C3
C3
E7
7B
ENDCHAR
STARTCHAR v
ENCODING 118
SWIDTH 572 0
DWIDTH 10 0
BBX 8 10 1 0
BITMAP
C3
C3
C3
62
66
66
34
34
18
18
ENDCHAR
STARTCHAR w
ENCODING 119
SWIDTH 840 0
DWIDTH 16 0
BBX 14 10 1 0
BITMAP
C00C
C30C
C30C
6318
6598
6590
68D0
38F0
3060
3060
ENDCHAR
STARTCHAR x
ENCODING 120
SWIDTH 613 0
DWIDTH 11 0
BBX 8 10 2 0
BITMAP
C3
C3
66
34
38
1C
2C
66
C3
C3
ENDCHAR
STARTCHAR y
ENCODING 121
SWIDTH 568 0
DWIDTH 10 0
BBX 8 13 1 -3
BITMAP
C3
C3
C3
62
66
66
34
3C
18
18
10
30
30
ENDCHAR
STARTCHAR z
ENCODING 122
SWIDTH 573 0
DWIDTH 10 0
BBX 8 10 1 0
BITMAP
FF
03
07
0E
1C
38
70
E0
C0
FF
ENDCHAR
STARTCHAR braceleft
ENCODING 123
SWIDTH 325 0
DWIDTH 6 0
BBX 4 16 1 -2
BITMAP
70
C0
C0
40
60
20
20
C0
20
20
60
40
C0
C0
C0
70
ENDCHAR
STARTCHAR bar
ENCODING 124
SWIDTH 265 0
DWIDTH 4 0
BBX 2 16 1 -2
BITMAP
C0
C0
C0
C0
C0
C0
C0
C0
C0
C0
C0
C0
C0
C0
C0
C0
ENDCHAR
STARTCHAR braceright
ENCODING 125
SWIDTH 325 0
DWIDTH 6 0
BBX 4 16 1 -2
BITMAP
E0
30
30
20
60
40
40
30
40
40
60
20
30
30
30
E0
ENDCHAR
STARTCHAR asciitilde
ENCODING 126
SWIDTH 633 0
DWIDTH 12 0
BBX 9 3 2 4
BITMAP
7080
9C80
8700
ENDCHAR
STARTCHAR space
ENCODING 160
SWIDTH 316 0
DWIDTH 5 0
BBX 1 1 0 0
BITMAP
00
ENDCHAR
STARTCHAR exclamdown
ENCODING 161
SWIDTH 205 0
DWIDTH 4 0
BBX 2 13 1 -3
BITMAP
C0
C0
00
00
80
C0
C0
C0
C0
C0
C0
C0
C0
ENDCHAR
STARTCHAR cent
ENCODING 162
SWIDTH 633 0
DWIDTH 12 0
BBX 8 14 3 -1
BITMAP
08
08
1E
6B
68
C8
C8
C8
C8
C8
6B
3E
08
08
ENDCHAR
STARTCHAR sterling
ENCODING 163
SWIDTH 633 0
DWIDTH 12 0
BBX 9 13 2 0
BITMAP
0F00
1180
3000
3000
3000
3000
FC00
3000
3000
2000
4000
FF80
FF80
ENDCHAR
STARTCHAR currency
ENCODING 164
SWIDTH 633 0
DWIDTH 12 0
BBX 11 11 1 1
BITMAP
8020
4040
3F80
3180
60C0
60C0
60C0
3180
3F80
4040
8020
ENDCHAR
STARTCHAR yen
ENCODING 165
SWIDTH 633 0
DWIDTH 12 0
BBX 10 13 1 0
BITMAP
C0C0
C0C0
6180
3100
3300
1A00
0C00
3F00
0C00
3F00
0C00
0C00
0C00
ENDCHAR
STARTCHAR brokenbar
ENCODING 166
SWIDTH 265 0
DWIDTH 4 0
BBX 2 16 1 -2
BITMAP
C0
C0
C0
C0
C0
C0
00
00
00
00
C0
C0
C0
C0
C0
C0
ENDCHAR
STARTCHAR section
ENCODING 167
SWIDTH 633 0
DWIDTH 12 0
BBX 8 15 2 -2
BITMAP
7E
E3
C0
E0
78
5E
C7
C3
E3
7A
1E
07
03
C7
7E
ENDCHAR
STARTCHAR dieresis
ENCODING 168
SWIDTH 614 0
DWIDTH 11 0
BBX 6 2 3 11
BITMAP
CC
CC
ENDCHAR
STARTCHAR copyright
ENCODING 169
SWIDTH 855 0
DWIDTH 16 0
BBX 13 13 2 0
BITMAP
0F80
3060
4010
4390
8408
8C08
8C08
8C08
8608
4390
4010
3060
0F80
ENDCHAR
STARTCHAR ordfeminine
ENCODING 170
SWIDTH 422 0
DWIDTH 8 0
BBX 7 7 1 6
BITMAP
78
CC
0C
7C
CC
CC
76
ENDCHAR
STARTCHAR guillemotleft
ENCODING 171
SWIDTH 524 0
DWIDTH 10 0
BBX 9 8 0 1
BITMAP
1980
3300
6600
CC00
CC00
6600
3300
1980
ENDCHAR
STARTCHAR logicalnot
ENCODING 172
SWIDTH 633 0
DWIDTH 12 0
BBX 9 5 2 1
BITMAP
FF80
0080
0080
0080
0080
ENDCHAR
STARTCHAR hyphen
ENCODING 173
SWIDTH 325 0
DWIDTH 6 0
BBX 4 1 1 5
BITMAP
F0
ENDCHAR
STARTCHAR registered
ENCODING 174
SWIDTH 633 0
DWIDTH 12 0
BBX 8 8 2 5
BITMAP
3C
42
B9
A5
B9
A5
42
3C
ENDCHAR
STARTCHAR macron
ENCODING 175
SWIDTH 614 0
DWIDTH 11 0
BBX 5 2 3 11
BITMAP
F8
F8
ENDCHAR
STARTCHAR degree
ENCODING 176
SWIDTH 277 0
DWIDTH 5 0
BBX 4 4 1 10
BITMAP
60
90
90
60
ENDCHAR
STARTCHAR plusminus
ENCODING 177
SWIDTH 633 0
DWIDTH 12 0
BBX 9 8 2 2
BITMAP
0800
0800
0800
FF80
0800
0800
0000
FF80
ENDCHAR
STARTCHAR twosuperior
ENCODING 178
SWIDTH 422 0
DWIDTH 8 0
BBX 6 7 1 6
BITMAP
78
CC
0C
38
60
C0
FC
ENDCHAR
STARTCHAR threesuperior
ENCODING 179
SWIDTH 422 0
DWIDTH 8 0
BBX 6 7 1 6
BITMAP
78
CC
0C
38
0C
CC
78
ENDCHAR
STARTCHAR acute
ENCODING 180
SWIDTH 614 0
DWIDTH 11 0
BBX 4 2 4 11
BITMAP
70
C0
ENDCHAR
STARTCHAR mu
ENCODING 181
SWIDTH 627 0
DWIDTH 12 0
BBX 8 13 2 -3
BITMAP
C3
C3
C3
C3
C3
C3
C3
C3
E7
FB
C0
C0
C0
ENDCHAR
STARTCHAR paragraph
ENCODING 182
SWIDTH 633 0
DWIDTH 12 0
BBX 8 15 2 -2
BITMAP
7F
F9
F9
F9
79
39
09
09
09
09
09
09
09
09
09
ENDCHAR
STARTCHAR periodcentered
ENCODING 183
SWIDTH 316 0
DWIDTH 12 0
BBX 3 3 5 4
BITMAP
E0
E0
E0
ENDCHAR
STARTCHAR cedilla
ENCODING 184
SWIDTH 614 0
DWIDTH 11 0
BBX 4 3 3 -3
BITMAP
60
30
E0
ENDCHAR
STARTCHAR onesuperior
ENCODING 185
SWIDTH 422 0
DWIDTH 8 0
BBX 4 7 2 6
BITMAP
30
F0
30
30
30
30
30
ENDCHAR
STARTCHAR ordmasculine
ENCODING 186
SWIDTH 422 0
DWIDTH 8 0
BBX 6 7 1 6
BITMAP
78
CC
CC
CC
CC
CC
78
ENDCHAR
STARTCHAR guillemotright
ENCODING 187
SWIDTH 524 0
DWIDTH 10 0
BBX 9 8 1 1
BITMAP
CC00
6600
3300
1980
1980
3300
6600
CC00
ENDCHAR
STARTCHAR onequarter
ENCODING 188
SWIDTH 801 0
DWIDTH 15 0
BBX 13 13 1 0
BITMAP
E030
6060
60C0
6180
6100
6300
6670
0CB0
0930
1B30
33F8
6030
C030
ENDCHAR
STARTCHAR onehalf
ENCODING 189
SWIDTH 801 0
DWIDTH 15 0
BBX 13 13 1 0
BITMAP
E060
60C0
6180
6180
6300
6600
6670
0C98
1818
3030
3040
60F8
C0F8
ENDCHAR
STARTCHAR threequarters
ENCODING 190
SWIDTH 873 0
DWIDTH 16 0
BBX 14 13 1 0
BITMAP
7018
9830
1860
70C0
1880
9980
7338
0658
0498
0D98
19FC
3018
6018
ENDCHAR
STARTCHAR questiondown
ENCODING 191
SWIDTH 422 0
DWIDTH 8 0
BBX 7 13 0 -3
BITMAP
0C
0C
00
00
0C
0C
0C
18
60
C0
C0
E6
7C
ENDCHAR
STARTCHAR Agrave
ENCODING 192
SWIDTH 690 0
DWIDTH 13 0
BBX 11 16 1 0
BITMAP
0E00
0300
0000
0600
0600
0F00
0B00
1980
1180
3180
20C0
7FC0
60C0
4060
C060
C060
ENDCHAR
STARTCHAR Aacute
ENCODING 193
SWIDTH 690 0
DWIDTH 13 0
BBX 11 16 1 0
BITMAP
0700
0C00
0000
0600
0600
0F00
0B00
1980
1180
3180
20C0
7FC0
60C0
4060
C060
C060
ENDCHAR
STARTCHAR Acircumflex
ENCODING 194
SWIDTH 690 0
DWIDTH 13 0
BBX 11 16 1 0
BITMAP
0E00
1B00
0000
0600
0600
0F00
0B00
1980
1180
3180
20C0
7FC0
60C0
4060
C060
C060
ENDCHAR
STARTCHAR Atilde
ENCODING 195
SWIDTH 690 0
DWIDTH 13 0
BBX 11 16 1 0
BITMAP
0E80
1700
0000
0600
0600
0F00
0B00
1980
1180
3180
20C0
7FC0
60C0
4060
C060
C060
ENDCHAR
STARTCHAR Adieresis
ENCODING 196
SWIDTH 690 0
DWIDTH 13 0
BBX 11 16 1 0
BITMAP
1980
1980
0000
0600
0600
0F00
0B00
1980
1180
3180
20C0
7FC0
60C0
4060
C060
C060
ENDCHAR
STARTCHAR Aring
ENCODING 197
SWIDTH 690 0
DWIDTH 13 0
BBX 11 16 1 0
BITMAP
0E00
1300
0E00
0600
0600
0F00
0B00
1980
1180
3180
20C0
7FC0
60C0
4060
C060
C060
ENDCHAR
STARTCHAR AE
ENCODING 198
SWIDTH 907 0
DWIDTH 17 0
BBX 14 13 2 0
BITMAP
03FC
0780
0580
0D80
0980
1980
11F8
3180
3F80
6180
4180
C180
C1FC
ENDCHAR
STARTCHAR Ccedilla
ENCODING 199
SWIDTH 692 0
DWIDTH 13 0
BBX 11 16 1 -3
BITMAP
0FC0
38E0
6000
6000
C000
C000
C000
C000
C000
6000
7000
38E0
0FC0
0C00
0600
1C00
ENDCHAR
STARTCHAR Egrave
ENCODING 200
SWIDTH 542 0
DWIDTH 10 0
BBX 7 16 2 0
BITMAP
70
18
00
FE
C0
C0
C0
C0
C0
FC
C0
C0
C0
C0
C0
FE
ENDCHAR
STARTCHAR Eacute
ENCODING 201
SWIDTH 542 0
DWIDTH 10 0
BBX 7 16 2 0
BITMAP
1C
30
00
FE
C0
C0
C0
C0
C0
FC
C0
C0
C0
C0
C0
FE
ENDCHAR
STARTCHAR Ecircumflex
ENCODING 202
SWIDTH 542 0
DWIDTH 10 0
BBX 7 16 2 0
BITMAP
38
6C
00
FE
C0
C0
C0
C0
C0
FC
C0
C0
C0
C0
C0
FE
ENDCHAR
STARTCHAR Edieresis
ENCODING 203
SWIDTH 542 0
DWIDTH 10 0
BBX 7 16 2 0
BITMAP
66
66
00
FE
C0
C0
C0
C0
C0
FC
C0
C0
C0
C0
C0
FE
ENDCHAR
STARTCHAR Igrave
ENCODING 204
SWIDTH 288 0
DWIDTH 6 0
BBX 4 16 1 0
BITMAP
E0
30
00
60
60
60
60
60
60
60
60
60
60
60
60
60
ENDCHAR
STARTCHAR Iacute
ENCODING 205
SWIDTH 288 0
DWIDTH 6 0
BBX 4 16 1 0
BITMAP
70
C0
00
60
60
60
60
60
60
60
60
60
60
60
60
60
ENDCHAR
STARTCHAR Icircumflex
ENCODING 206
SWIDTH 288 0
DWIDTH 6 0
BBX 5 16 1 0
BITMAP
70
D8
00
60
60
60
60
60
60
60
60
60
60
60
60
60
ENDCHAR
STARTCHAR Idieresis
ENCODING 207
SWIDTH 288 0
DWIDTH 6 0
BBX 6 16 0 0
BITMAP
CC
CC
00
30
30
30
30
30
30
30
30
30
30
30
30
30
ENDCHAR
STARTCHAR Eth
ENCODING 208
SWIDTH 749 0
DWIDTH 14 0
BBX 13 13 0 0
BITMAP
3FC0
3070
3030
3018
3018
3018
FC18
3018
3018
3030
3030
30E0
3F80
ENDCHAR
STARTCHAR Ntilde
ENCODING 209
SWIDTH 741 0
DWIDTH 14 0
BBX 10 16 2 0
BITMAP
1D00
2E00
0000
C040
E040
F040
B040
9840
9C40
8C40
8640
8740
8340
81C0
81C0
80C0
ENDCHAR
STARTCHAR Ograve
ENCODING 210
SWIDTH 777 0
DWIDTH 14 0
BBX 12 16 1 0
BITMAP
0E00
0300
0000
0F00
39C0
6060
6060
C030
C030
C030
C030
C030
6060
6060
39C0
0F00
ENDCHAR
STARTCHAR Oacute
ENCODING 211
SWIDTH 777 0
DWIDTH 14 0
BBX 12 16 1 0
BITMAP
0700
0C00
0000
0F00
39C0
6060
6060
C030
C030
C030
C030
C030
6060
6060
39C0
0F00
ENDCHAR
STARTCHAR Ocircumflex
ENCODING 212
SWIDTH 777 0
DWIDTH 14 0
BBX 12 16 1 0
BITMAP
0700
0D80
0000
0F00
39C0
6060
6060
C030
C030
C030
C030
C030
6060
6060
39C0
0F00
ENDCHAR
STARTCHAR Otilde
ENCODING 213
SWIDTH 777 0
DWIDTH 14 0
BBX 12 16 1 0
BITMAP
0E80
1700
0000
0F00
39C0
6060
6060
C030
C030
C030
C030
C030
6060
6060
39C0
0F00
ENDCHAR
STARTCHAR Odieresis
ENCODING 214
SWIDTH 777 0
DWIDTH 14 0
BBX 12 16 1 0
BITMAP
1980
1980
0000
0F00
39C0
6060
6060
C030
C030
C030
C030
C030
6060
6060
39C0
0F00
ENDCHAR
STARTCHAR multiply
ENCODING 215
SWIDTH 633 0
DWIDTH 12 0
BBX 7 7 3 2
BITMAP
C2
64
38
10
38
4C
86
ENDCHAR
STARTCHAR Oslash
ENCODING 216
SWIDTH 777 0
DWIDTH 14 0
BBX 12 15 1 -1
BITMAP
0020
0F60
39C0
60E0
6160
C130
C230
C230
C430
C830
6860
7060
39C0
6F00
4000
ENDCHAR
STARTCHAR Ugrave
ENCODING 217
SWIDTH 693 0
DWIDTH 13 0
BBX 9 16 2 0
BITMAP
3800
0C00
0000
C180
C180
C180
C180
C180
C180
C180
C180
C180
C180
6300
7700
1C00
ENDCHAR
STARTCHAR Uacute
ENCODING 218
SWIDTH 693 0
DWIDTH 13 0
BBX 9 16 2 0
BITMAP
0E00
1800
0000
C180
C180
C180
C180
C180
C180
C180
C180
C180
C180
6300
7700
1C00
ENDCHAR
STARTCHAR Ucircumflex
ENCODING 219
SWIDTH 693 0
DWIDTH 13 0
BBX 9 16 2 0
BITMAP
1C00
3600
0000
C180
C180
C180
C180
C180
C180
C180
C180
C180
C180
6300
7700
1C00
ENDCHAR
STARTCHAR Udieresis
ENCODING 220
SWIDTH 693 0
DWIDTH 13 0
BBX 9 16 2 0
BITMAP
3300
3300
0000
C180
C180
C180
C180
C180
C180
C180
C180
C180
C180
6300
7700
1C00
ENDCHAR
STARTCHAR Yacute
ENCODING 221
SWIDTH 623 0
DWIDTH 12 0
BBX 10 16 1 0
BITMAP
0700
0C00
0000
C0C0
C0C0
6180
3100
3300
1E00
0C00
0C00
0C00
0C00
0C00
0C00
0C00
ENDCHAR
STARTCHAR Thorn
ENCODING 222
SWIDTH 553 0
DWIDTH 11 0
BBX 8 13 2 0
BITMAP
C0
C0
C0
FE
C7
C3
C3
C3
C6
FC
C0
C0
C0
ENDCHAR
STARTCHAR germandbls
ENCODING 223
SWIDTH 598 0
DWIDTH 11 0
BBX 8 14 2 0
BITMAP
3C
46
C6
C4
C8
D8
DC
CE
C6
C7
C3
C3
C3
CE
ENDCHAR
STARTCHAR agrave
ENCODING 224
SWIDTH 552 0
DWIDTH 10 0
BBX 9 13 1 0
BITMAP
3800
0C00
0000
3E00
6700
0300
0300
3F00
6300
C300
C300
E700
7980
ENDCHAR
STARTCHAR aacute
ENCODING 225
SWIDTH 552 0
DWIDTH 10 0
BBX 9 13 1 0
BITMAP
0E00
1800
0000
3E00
6700
0300
0300
3F00
6300
C300
C300
E700
7980
ENDCHAR
STARTCHAR acircumflex
ENCODING 226
SWIDTH 552 0
DWIDTH 10 0
BBX 9 13 1 0
BITMAP
1C00
3600
0000
3E00
6700
0300
0300
3F00
6300
C300
C300
E700
7980
ENDCHAR
STARTCHAR atilde
ENCODING 227
SWIDTH 552 0
DWIDTH 10 0
BBX 9 13 1 0
BITMAP
1D00
2E00
0000
3E00
6700
0300
0300
3F00
6300
C300
C300
E700
7980
ENDCHAR
STARTCHAR adieresis
ENCODING 228
SWIDTH 552 0
DWIDTH 10 0
BBX 9 13 1 0
BITMAP
6600
6600
0000
3E00
6700
0300
0300
3F00
6300
C300
C300
E700
7980
ENDCHAR
STARTCHAR aring
ENCODING 229
SWIDTH 552 0
DWIDTH 10 0
BBX 9 13 1 0
BITMAP
1C00
2600
1C00
3E00
6700
0300
0300
3F00
6300
C300
C300
E700
7980
ENDCHAR
STARTCHAR ae
ENCODING 230
SWIDTH 853 0
DWIDTH 16 0
BBX 14 10 1 0
BITMAP
3EF0
6798
030C
030C
3FFC
6300
C300
C380
E7CC
78F8
ENDCHAR
STARTCHAR ccedilla
ENCODING 231
SWIDTH 518 0
DWIDTH 10 0
BBX 8 13 1 -3
BITMAP
1E
73
60
C0
C0
C0
C0
60
73
1E
18
0C
38
ENDCHAR
STARTCHAR egrave
ENCODING 232
SWIDTH 557 0
DWIDTH 10 0
BBX 8 13 1 0
BITMAP
38
0C
00
3C
66
C3
C3
FF
C0
C0
E0
73
3E
ENDCHAR
STARTCHAR eacute
ENCODING 233
SWIDTH 557 0
DWIDTH 10 0
BBX 8 13 1 0
BITMAP
0E
18
00
3C
66
C3
C3
FF
C0
C0
E0
73
3E
ENDCHAR
STARTCHAR ecircumflex
ENCODING 234
SWIDTH 557 0
DWIDTH 10 0
BBX 8 13 1 0
BITMAP
1C
36
00
3C
66
C3
C3
FF
C0
C0
E0
73
3E
ENDCHAR
STARTCHAR edieresis
ENCODING 235
SWIDTH 557 0
DWIDTH 10 0
BBX 8 13 1 0
BITMAP
66
66
00
3C
66
C3
C3
FF
C0
C0
E0
73
3E
ENDCHAR
STARTCHAR igrave
ENCODING 236
SWIDTH 289 0
DWIDTH 6 0
BBX 4 13 1 0
BITMAP
E0
30
00
60
60
60
60
60
60
60
60
60
60
ENDCHAR
STARTCHAR iacute
ENCODING 237
SWIDTH 289 0
DWIDTH 6 0
BBX 4 13 2 0
BITMAP
70
C0
00
C0
C0
C0
C0
C0
C0
C0
C0
C0
C0
ENDCHAR
STARTCHAR icircumflex
ENCODING 238
SWIDTH 289 0
DWIDTH 6 0
BBX 5 13 1 0
BITMAP
70
D8
00
60
60
60
60
60
60
60
60
60
60
ENDCHAR
STARTCHAR idieresis
ENCODING 239
SWIDTH 289 0
DWIDTH 6 0
BBX 6 13 0 0
BITMAP
CC
CC
00
30
30
30
30
30
30
30
30
30
30
ENDCHAR
STARTCHAR eth
ENCODING 240
SWIDTH 602 0
DWIDTH 11 0
BBX 10 15 1 0
BITMAP
3800
0DC0
0F00
3B00
0300
1F80
7380
6180
C180
C180
C180
C180
6300
7700
1C00
ENDCHAR
STARTCHAR ntilde
ENCODING 241
SWIDTH 620 0
DWIDTH 12 0
BBX 8 13 2 0
BITMAP
3A
5C
00
DE
E7
C3
C3
C3
C3
C3
C3
C3
C3
ENDCHAR
STARTCHAR ograve
ENCODING 242
SWIDTH 614 0
DWIDTH 11 0
BBX 9 13 1 0
BITMAP
3800
0C00
0000
1C00
7700
6300
C180
C180
C180
C180
6300
7700
1C00
ENDCHAR
STARTCHAR oacute
ENCODING 243
SWIDTH 614 0
DWIDTH 11 0
BBX 9 13 1 0
BITMAP
0E00
1800
0000
1C00
7700
6300
C180
C180
C180
C180
6300
7700
1C00
ENDCHAR
STARTCHAR ocircumflex
ENCODING 244
SWIDTH 614 0
DWIDTH 11 0
BBX 9 13 1 0
BITMAP
1C00
3600
0000
1C00
7700
6300
C180
C180
C180
C180
6300
7700
1C00
ENDCHAR
STARTCHAR otilde
ENCODING 245
SWIDTH 614 0
DWIDTH 11 0
BBX 9 13 1 0
BITMAP
1D00
2E00
0000
1C00
7700
6300
C180
C180
C180
C180
6300
7700
1C00
ENDCHAR
STARTCHAR odieresis
ENCODING 246
SWIDTH 614 0
DWIDTH 11 0
BBX 9 13 1 0
BITMAP
3300
3300
0000
1C00
7700
6300
C180
C180
C180
C180
6300
7700
1C00
ENDCHAR
STARTCHAR divide
ENCODING 247
SWIDTH 633 0
DWIDTH 12 0
BBX 9 9 2 1
BITMAP
0800
0800
0000
0000
FF80
0000
0000
0800
0800
ENDCHAR
STARTCHAR oslash
ENCODING 248
SWIDTH 614 0
DWIDTH 11 0
BBX 9 10 1 0
BITMAP
1C80
7780
6300
C580
C980
C980
D180
6300
F700
9C00
ENDCHAR
STARTCHAR ugrave
ENCODING 249
SWIDTH 620 0
DWIDTH 12 0
BBX 8 13 2 0
BITMAP
38
0C
00
C3
C3
C3
C3
C3
C3
C3
C3
E7
7B
ENDCHAR
STARTCHAR uacute
ENCODING 250
SWIDTH 620 0
DWIDTH 12 0
BBX 8 13 2 0
BITMAP
1C
30
00
C3
C3
C3
C3
C3
C3
C3
C3
E7
7B
ENDCHAR
STARTCHAR ucircumflex
ENCODING 251
SWIDTH 620 0
DWIDTH 12 0
BBX 8 13 2 0
BITMAP
1C
36
00
C3
C3
C3
C3
C3
C3
C3
C3
E7
7B
ENDCHAR
STARTCHAR udieresis
ENCODING 252
SWIDTH 620 0
DWIDTH 12 0
BBX 8 13 2 0
BITMAP
66
66
00
C3
C3
C3
C3
C3
C3
C3
C3
E7
7B
ENDCHAR
STARTCHAR yacute
ENCODING 253
SWIDTH 568 0
DWIDTH 10 0
BBX 8 16 1 -3
BITMAP
0E
18
00
C3
C3
C3
62
66
66
34
3C
18
18
10
30
30
ENDCHAR
STARTCHAR thorn
ENCODING 254
SWIDTH 630 0
DWIDTH 12 0
BBX 9 16 2 -3
BITMAP
C000
C000
C000
DC00
E700
C300
C180
C180
C180
C180
C300
E700
DC00
C000
C000
C000
ENDCHAR
STARTCHAR ydieresis
ENCODING 255
SWIDTH 568 0
DWIDTH 10 0
BBX 8 16 1 -3
BITMAP
66
66
00
C3
C3
C3
62
66
66
34
3C
18
18
10
30
30
ENDCHAR
STARTCHAR Amacron
ENCODING 256
SWIDTH 690 0
DWIDTH 13 0
BBX 11 16 1 0
BITMAP
1F00
1F00
0000
0600
0600
0F00
0B00
1980
1180
3180
20C0
7FC0
60C0
4060
C060
C060
ENDCHAR
STARTCHAR amacron
ENCODING 257
SWIDTH 552 0
DWIDTH 10 0
BBX 9 13 1 0
BITMAP
3E00
3E00
0000
3E00
6700
0300
0300
3F00
6300
C300
C300
E700
7980
ENDCHAR
STARTCHAR Abreve
ENCODING 258
SWIDTH 690 0
DWIDTH 13 0
BBX 11 17 1 0
BITMAP
1100
1F00
0E00
0000
0600
0600
0F00
0B00
1980
1180
3180
20C0
7FC0
60C0
4060
C060
C060
ENDCHAR
STARTCHAR abreve
ENCODING 259
SWIDTH 552 0
DWIDTH 10 0
BBX 9 14 1 0
BITMAP
2200
3E00
1C00
0000
3E00
6700
0300
0300
3F00
6300
C300
C300
E700
7980
ENDCHAR
STARTCHAR Aogonek
ENCODING 260
SWIDTH 690 0
DWIDTH 13 0
BBX 11 16 1 -3
BITMAP
0600
0600
0F00
0B00
1980
1180
3180
20C0
7FC0
60C0
4060
C060
C060
0600
0C00
0700
ENDCHAR
STARTCHAR aogonek
ENCODING 261
SWIDTH 552 0
DWIDTH 10 0
BBX 9 13 1 -3
BITMAP
3E00
6700
0300
0300
3F00
6300
C300
C300
E700
7980
1800
3000
1C00
ENDCHAR
STARTCHAR Cacute
ENCODING 262
SWIDTH 692 0
DWIDTH 13 0
BBX 11 16 1 0
BITMAP
0700
0C00
0000
0FC0
38E0
6000
6000
C000
C000
C000
C000
C000
6000
7000
38E0
0FC0
ENDCHAR
STARTCHAR cacute
ENCODING 263
SWIDTH 518 0
DWIDTH 10 0
BBX 8 13 1 0
BITMAP
0E
18
00
1E
73
60
C0
C0
C0
C0
60
73
1E
ENDCHAR
STARTCHAR Ccircumflex
ENCODING 264
SWIDTH 692 0
DWIDTH 13 0
BBX 11 16 1 0
BITMAP
0E00
1B00
0000
0FC0
38E0
6000
6000
C000
C000
C000
C000
C000
6000
7000
38E0
0FC0
ENDCHAR
STARTCHAR ccircumflex
ENCODING 265
SWIDTH 518 0
DWIDTH 10 0
BBX 8 13 1 0
BITMAP
1C
36
00
1E
73
60
C0
C0
C0
C0
60
73
1E
ENDCHAR
STARTCHAR Cdotaccent
ENCODING 266
SWIDTH 692 0
DWIDTH 13 0
BBX 11 16 1 0
BITMAP
0600
0600
0000
0FC0
38E0
6000
6000
C000
C000
C000
C000
C000
6000
7000
38E0
0FC0
ENDCHAR
STARTCHAR cdotaccent
ENCODING 267
SWIDTH 518 0
DWIDTH 10 0
BBX 8 13 1 0
BITMAP
18
18
00
1E
73
60
C0
C0
C0
C0
60
73
1E
ENDCHAR
STARTCHAR Ccaron
ENCODING 268
SWIDTH 692 0
DWIDTH 13 0
BBX 11 16 1 0
BITMAP
1B00
0E00
0000
0FC0
38E0
6000
6000
C000
C000
C000
C000
C000
6000
7000
38E0
0FC0
ENDCHAR
STARTCHAR ccaron
ENCODING 269
SWIDTH 518 0
DWIDTH 10 0
BBX 8 13 1 0
BITMAP
36
1C
00
1E
73
60
C0
C0
C0
C0
60
73
1E
ENDCHAR
STARTCHAR Dcaron
ENCODING 270
SWIDTH 749 0
DWIDTH 14 0
BBX 11 16 2 0
BITMAP
1B00
0E00
0000
FF00
C1C0
C0C0
C060
C060
C060
C060
C060
C060
C0C0
C0C0
C380
FE00
ENDCHAR
STARTCHAR dcaron
ENCODING 271
SWIDTH 828 0
DWIDTH 15 0
BBX 13 14 1 0
BITMAP
0198
0198
0188
0190
1D80
7380
6180
C180
C180
C180
C180
6180
7380
1D80
ENDCHAR
STARTCHAR Dcroat
ENCODING 272
SWIDTH 749 0
DWIDTH 14 0
BBX 13 13 0 0
BITMAP
3FC0
3070
3030
3018
3018
3018
FC18
3018
3018
3030
3030
30E0
3F80
ENDCHAR
STARTCHAR dcroat
ENCODING 273
SWIDTH 630 0
DWIDTH 12 0
BBX 9 14 1 0
BITMAP
0180
0180
0F80
0180
1D80
7380
6180
C180
C180
C180
C180
6180
7380
1D80
ENDCHAR
STARTCHAR Emacron
ENCODING 274
SWIDTH 542 0
DWIDTH 10 0
BBX 7 16 2 0
BITMAP
F8
F8
00
FE
C0
C0
C0
C0
C0
FC
C0
C0
C0
C0
C0
FE
ENDCHAR
STARTCHAR emacron
ENCODING 275
SWIDTH 557 0
DWIDTH 10 0
BBX 8 13 1 0
BITMAP
3E
3E
00
3C
66
C3
C3
FF
C0
C0
E0
73
3E
ENDCHAR
STARTCHAR Ebreve
ENCODING 276
SWIDTH 542 0
DWIDTH 10 0
BBX 7 17 2 0
BITMAP
88
F8
70
00
FE
C0
C0
C0
C0
C0
FC
C0
C0
C0
C0
C0
FE
ENDCHAR
STARTCHAR ebreve
ENCODING 277
SWIDTH 557 0
DWIDTH 10 0
BBX 8 14 1 0
BITMAP
22
3E
1C
00
3C
66
C3
C3
FF
C0
C0
E0
73
3E
ENDCHAR
STARTCHAR Edotaccent
ENCODING 278
SWIDTH 542 0
DWIDTH 10 0
BBX 7 16 2 0
BITMAP
30
30
00
FE
C0
C0
C0
C0
C0
FC
C0
C0
C0
C0
C0
FE
ENDCHAR
STARTCHAR edotaccent
ENCODING 279
SWIDTH 557 0
DWIDTH 10 0
BBX 8 13 1 0
BITMAP
18
18
00
3C
66
C3
C3
FF
C0
C0
E0
73
3E
ENDCHAR
STARTCHAR Eogonek
ENCODING 280
SWIDTH 542 0
DWIDTH 10 0
BBX 7 16 2 -3
BITMAP
FE
C0
C0
C0
C0
C0
FC
C0
C0
C0
C0
C0
FE
30
60
38
ENDCHAR
STARTCHAR eogonek
ENCODING 281
SWIDTH 557 0
DWIDTH 10 0
BBX 8 13 1 -3
BITMAP
3C
66
C3
C3
FF
C0
C0
E0
73
3E
18
30
1C
ENDCHAR
STARTCHAR Ecaron
ENCODING 282
SWIDTH 542 0
DWIDTH 10 0
BBX 7 16 2 0
BITMAP
D8
70
00
FE
C0
C0
C0
C0
C0
FC
C0
C0
C0
C0
C0
FE
ENDCHAR
STARTCHAR ecaron
ENCODING 283
SWIDTH 557 0
DWIDTH 10 0
BBX 8 13 1 0
BITMAP
36
1C
00
3C
66
C3
C3
FF
C0
C0
E0
73
3E
ENDCHAR
STARTCHAR Gcircumflex
ENCODING 284
SWIDTH 723 0
DWIDTH 13 0
BBX 11 16 1 0
BITMAP
0E00
1B00
0000
0FC0
38E0
6000
6000
C000
C000
C000
C060
C060
6060
7060
3860
0FE0
ENDCHAR
STARTCHAR gcircumflex
ENCODING 285
SWIDTH 623 0
DWIDTH 12 0
BBX 9 16 1 -3
BITMAP
1C00
3600
0000
1D80
7380
6180
C180
C180
C180
C180
6380
3D80
0180
0180
6300
3E00
ENDCHAR
STARTCHAR Gbreve
ENCODING 286
SWIDTH 723 0
DWIDTH 13 0
BBX 11 17 1 0
BITMAP
1100
1F00
0E00
0000
0FC0
38E0
6000
6000
C000
C000
C000
C060
C060
6060
7060
3860
0FE0
ENDCHAR
STARTCHAR gbreve
ENCODING 287
SWIDTH 623 0
DWIDTH 12 0
BBX 9 17 1 -3
BITMAP
2200
3E00
1C00
0000
1D80
7380
6180
C180
C180
C180
C180
6380
3D80
0180
0180
6300
3E00
ENDCHAR
STARTCHAR Gdotaccent
ENCODING 288
SWIDTH 723 0
DWIDTH 13 0
BBX 11 16 1 0
BITMAP
0600
0600
0000
0FC0
38E0
6000
6000
C000
C000
C000
C060
C060
6060
7060
3860
0FE0
ENDCHAR
STARTCHAR gdotaccent
ENCODING 289
SWIDTH 623 0
DWIDTH 12 0
BBX 9 16 1 -3
BITMAP
0C00
0C00
0000
1D80
7380
6180
C180
C180
C180
C180
6380
3D80
0180
0180
6300
3E00
ENDCHAR
STARTCHAR Gcommaaccent
ENCODING 290
SWIDTH 723 0
DWIDTH 13 0
BBX 11 18 1 -5
BITMAP
0FC0
38E0
6000
6000
C000
C000
C000
C060
C060
6060
7060
3860
0FE0
0000
0600
0600
0200
0400
ENDCHAR
STARTCHAR gcommaaccent
ENCODING 291
SWIDTH 623 0
DWIDTH 12 0
BBX 9 18 1 -3
BITMAP
0400
0800
0C00
0C00
0000
1D80
7380
6180
C180
C180
C180
C180
6380
3D80
0180
0180
6300
3E00
ENDCHAR
STARTCHAR Hcircumflex
ENCODING 292
SWIDTH 735 0
DWIDTH 14 0
BBX 10 16 2 0
BITMAP
0E00
1B00
0000
C0C0
C0C0
C0C0
C0C0
C0C0
C0C0
FFC0
C0C0
C0C0
C0C0
C0C0
C0C0
C0C0
ENDCHAR
STARTCHAR hcircumflex
ENCODING 293
SWIDTH 620 0
DWIDTH 12 0
BBX 8 17 2 0
BITMAP
70
D8
00
C0
C0
C0
C0
DE
E7
C3
C3
C3
C3
C3
C3
C3
C3
ENDCHAR
STARTCHAR Hbar
ENCODING 294
SWIDTH 735 0
DWIDTH 14 0
BBX 10 13 2 0
BITMAP
C0C0
C0C0
FFC0
C0C0
C0C0
C0C0
FFC0
C0C0
C0C0
C0C0
C0C0
C0C0
C0C0
ENDCHAR
STARTCHAR hbar
ENCODING 295
SWIDTH 620 0
DWIDTH 12 0
BBX 8 14 2 0
BITMAP
C0
C0
F8
C0
DE
E7
C3
C3
C3
C3
C3
C3
C3
C3
ENDCHAR
STARTCHAR Itilde
ENCODING 296
SWIDTH 288 0
DWIDTH 6 0
BBX 6 16 0 0
BITMAP
74
B8
00
30
30
30
30
30
30
30
30
30
30
30
30
30
ENDCHAR
STARTCHAR itilde
ENCODING 297
SWIDTH 289 0
DWIDTH 6 0
BBX 6 13 0 0
BITMAP
74
B8
00
30
30
30
30
30
30
30
30
30
30
ENDCHAR
STARTCHAR Imacron
ENCODING 298
SWIDTH 288 0
DWIDTH 6 0
BBX 5 16 1 0
BITMAP
F8
F8
00
60
60
60
60
60
60
60
60
60
60
60
60
60
ENDCHAR
STARTCHAR imacron
ENCODING 299
SWIDTH 289 0
DWIDTH 6 0
BBX 5 13 1 0
BITMAP
F8
F8
00
60
60
60
60
60
60
60
60
60
60
ENDCHAR
STARTCHAR Ibreve
ENCODING 300
SWIDTH 288 0
DWIDTH 6 0
BBX 5 17 1 0
BITMAP
88
F8
70
00
60
60
60
60
60
60
60
60
60
60
60
60
60
ENDCHAR
STARTCHAR ibreve
ENCODING 301
SWIDTH 289 0
DWIDTH 6 0
BBX 5 14 1 0
BITMAP
88
F8
70
00
60
60
60
60
60
60
60
60
60
60
ENDCHAR
STARTCHAR Iogonek
ENCODING 302
SWIDTH 288 0
DWIDTH 6 0
BBX 4 16 1 -3
BITMAP
60
60
60
60
60
60
60
60
60
60
60
60
60
60
C0
70
ENDCHAR
STARTCHAR iogonek
ENCODING 303
SWIDTH 289 0
DWIDTH 6 0
BBX 4 17 1 -3
BITMAP
60
60
00
00
60
60
60
60
60
60
60
60
60
60
60
C0
70
ENDCHAR
STARTCHAR Idotaccent
ENCODING 304
SWIDTH 288 0
DWIDTH 6 0
BBX 2 16 2 0
BITMAP
C0
C0
00
C0
C0
C0
C0
C0
C0
C0
C0
C0
C0
C0
C0
C0
ENDCHAR
STARTCHAR dotlessi
ENCODING 305
SWIDTH 289 0
DWIDTH 6 0
BBX 2 10 2 0
BITMAP
C0
C0
C0
C0
C0
C0
C0
C0
C0
C0
ENDCHAR
STARTCHAR IJ
ENCODING 306
SWIDTH 585 0
DWIDTH 12 0
BBX 8 15 2 -2
BITMAP
C3
C3
C3
C3
C3
C3
C3
C3
C3
C3
C3
C3
C3
06
1C
ENDCHAR
STARTCHAR ij
ENCODING 307
SWIDTH 579 0
DWIDTH 12 0
BBX 8 17 2 -3
BITMAP
C3
C3
00
00
C3
C3
C3
C3
C3
C3
C3
C3
C3
C3
03
06
0C
ENDCHAR
STARTCHAR Jcircumflex
ENCODING 308
SWIDTH 311 0
DWIDTH 6 0
BBX 6 18 -1 -2
BITMAP
38
6C
00
18
18
18
18
18
18
18
18
18
18
18
18
18
30
E0
ENDCHAR
STARTCHAR jcircumflex
ENCODING 309
SWIDTH 304 0
DWIDTH 6 0
BBX 5 16 0 -3
BITMAP
70
D8
00
30
30
30
30
30
30
30
30
30
30
30
60
C0
ENDCHAR
STARTCHAR Kcommaaccent
ENCODING 310
SWIDTH 653 0
DWIDTH 12 0
BBX 10 18 2 -5
BITMAP
C180
C300
C600
CC00
D800
F000
F000
D800
CC00
C600
C300
C180
C0C0
0000
0C00
0C00
0400
0800
ENDCHAR
STARTCHAR kcommaaccent
ENCODING 311
SWIDTH 585 0
DWIDTH 11 0
BBX 9 19 2 -5
BITMAP
C000
C000
C000
C000
C300
C600
CC00
D800
F000
D800
CC00
C600
C300
C180
0000
1800
1800
0800
1000
ENDCHAR
STARTCHAR kgreenlandic
ENCODING 312
SWIDTH 585 0
DWIDTH 11 0
BBX 9 10 2 0
BITMAP
C300
C600
CC00
D800
F000
D800
CC00
C600
C300
C180
ENDCHAR
STARTCHAR Lacute
ENCODING 313
SWIDTH 533 0
DWIDTH 10 0
BBX 7 16 2 0
BITMAP
38
60
00
C0
C0
C0
C0
C0
C0
C0
C0
C0
C0
C0
C0
FE
ENDCHAR
STARTCHAR lacute
ENCODING 314
SWIDTH 289 0
DWIDTH 6 0
BBX 4 17 2 0
BITMAP
70
C0
00
C0
C0
C0
C0
C0
C0
C0
C0
C0
C0
C0
C0
C0
C0
ENDCHAR
STARTCHAR Lcommaaccent
ENCODING 315
SWIDTH 533 0
DWIDTH 10 0
BBX 7 18 2 -5
BITMAP
C0
C0
C0
C0
C0
C0
C0
C0
C0
C0
C0
C0
FE
00
30
30
10
20
ENDCHAR
STARTCHAR lcommaaccent
ENCODING 316
SWIDTH 289 0
DWIDTH 6 0
BBX 2 19 2 -5
BITMAP
C0
C0
C0
C0
C0
C0
C0
C0
C0
C0
C0
C0
C0
C0
00
C0
C0
40
80
ENDCHAR
STARTCHAR Lcaron
ENCODING 317
SWIDTH 735 0
DWIDTH 14 0
BBX 11 14 2 0
BITMAP
0060
C060
C020
C040
C000
C000
C000
C000
C000
C000
C000
C000
C000
FE00
ENDCHAR
STARTCHAR lcaron
ENCODING 318
SWIDTH 504 0
DWIDTH 10 0
BBX 7 14 2 0
BITMAP
C6
C6
C2
C4
C0
C0
C0
C0
C0
C0
C0
C0
C0
C0
ENDCHAR
STARTCHAR Ldot
ENCODING 319
SWIDTH 822 0
DWIDTH 22 0
BBX 16 13 2 0
BITMAP
C000
C000
C000
C000
C000
C000
C007
C007
C007
C000
C000
C000
FE00
ENDCHAR
STARTCHAR ldot
ENCODING 320
SWIDTH 591 0
DWIDTH 18 0
BBX 12 14 2 0
BITMAP
C000
C000
C000
C000
C000
C000
C000
C070
C070
C070
C000
C000
C000
C000
ENDCHAR
STARTCHAR Lslash
ENCODING 321
SWIDTH 533 0
DWIDTH 10 0
BBX 9 13 0 0
BITMAP
3000
3000
3000
3000
3000
3C00
F000
3000
3000
3000
3000
3000
3F80
ENDCHAR
STARTCHAR lslash
ENCODING 322
SWIDTH 289 0
DWIDTH 6 0
BBX 6 14 0 0
BITMAP
30
30
30
30
30
3C
F0
30
30
30
30
30
30
30
ENDCHAR
STARTCHAR Nacute
ENCODING 323
SWIDTH 741 0
DWIDTH 14 0
BBX 10 16 2 0
BITMAP
0E00
1800
0000
C040
E040
F040
B040
9840
9C40
8C40
8640
8740
8340
81C0
81C0
80C0
ENDCHAR
STARTCHAR nacute
ENCODING 324
SWIDTH 620 0
DWIDTH 12 0
BBX 8 13 2 0
BITMAP
0E
18
00
DE
E7
C3
C3
C3
C3
C3
C3
C3
C3
ENDCHAR
STARTCHAR Ncommaaccent
ENCODING 325
SWIDTH 741 0
DWIDTH 14 0
BBX 10 18 2 -5
BITMAP
C040
E040
F040
B040
9840
9C40
8C40
8640
8740
8340
81C0
81C0
80C0
0000
0600
0600
0200
0400
ENDCHAR
STARTCHAR ncommaaccent
ENCODING 326
SWIDTH 620 0
DWIDTH 12 0
BBX 8 15 2 -5
BITMAP
DE
E7
C3
C3
C3
C3
C3
C3
C3
C3
00
18
18
08
10
ENDCHAR
STARTCHAR Ncaron
ENCODING 327
SWIDTH 741 0
DWIDTH 14 0
BBX 10 16 2 0
BITMAP
3600
1C00
0000
C040
E040
F040
B040
9840
9C40
8C40
8640
8740
8340
81C0
81C0
80C0
ENDCHAR
STARTCHAR ncaron
ENCODING 328
SWIDTH 620 0
DWIDTH 12 0
BBX 8 13 2 0
BITMAP
6C
38
00
DE
E7
C3
C3
C3
C3
C3
C3
C3
C3
ENDCHAR
STARTCHAR napostrophe
ENCODING 329
SWIDTH 838 0
DWIDTH 16 0
BBX 13 14 1 0
BITMAP
C000
C000
4000
8000
06F0
0738
0618
0618
0618
0618
0618
0618
0618
0618
ENDCHAR
STARTCHAR Eng
ENCODING 330
SWIDTH 741 0
DWIDTH 14 0
BBX 10 16 2 -3
BITMAP
C040
E040
F040
B040
9840
9C40
8C40
8640
8740
83C0
81C0
81C0
80C0
00C0
0180
0300
ENDCHAR
STARTCHAR eng
ENCODING 331
SWIDTH 620 0
DWIDTH 12 0
BBX 8 13 2 -3
BITMAP
DE
E7
C3
C3
C3
C3
C3
C3
C3
C3
03
06
0C
ENDCHAR
STARTCHAR Omacron
ENCODING 332
SWIDTH 777 0
DWIDTH 14 0
BBX 12 16 1 0
BITMAP
0F80
0F80
0000
0F00
39C0
6060
6060
C030
C030
C030
C030
C030
6060
6060
39C0
0F00
ENDCHAR
STARTCHAR omacron
ENCODING 333
SWIDTH 614 0
DWIDTH 11 0
BBX 9 13 1 0
BITMAP
3E00
3E00
0000
1C00
7700
6300
C180
C180
C180
C180
6300
7700
1C00
ENDCHAR
STARTCHAR Obreve
ENCODING 334
SWIDTH 777 0
DWIDTH 14 0
BBX 12 17 1 0
BITMAP
0880
0F80
0700
0000
0F00
39C0
6060
6060
C030
C030
C030
C030
C030
6060
6060
39C0
0F00
ENDCHAR
STARTCHAR obreve
ENCODING 335
SWIDTH 614 0
DWIDTH 11 0
BBX 9 14 1 0
BITMAP
2200
3E00
1C00
0000
1C00
7700
6300
C180
C180
C180
C180
6300
7700
1C00
ENDCHAR
STARTCHAR Ohungarumlaut
ENCODING 336
SWIDTH 777 0
DWIDTH 14 0
BBX 12 17 1 0
BITMAP
0480
0D80
0900
0000
0F00
39C0
6060
6060
C030
C030
C030
C030
C030
6060
6060
39C0
0F00
ENDCHAR
STARTCHAR ohungarumlaut
ENCODING 337
SWIDTH 614 0
DWIDTH 11 0
BBX 9 14 1 0
BITMAP
1200
3600
2400
0000
1C00
7700
6300
C180
C180
C180
C180
6300
7700
1C00
ENDCHAR
STARTCHAR OE
ENCODING 338
SWIDTH 1000 0
DWIDTH 18 0
BBX 16 13 1 0
BITMAP
0F7F
38E0
6060
6060
C060
C060
C07E
C060
C060
6060
6060
38E0
0F7F
ENDCHAR
STARTCHAR oe
ENCODING 339
SWIDTH 930 0
DWIDTH 17 0
BBX 15 10 1 0
BITMAP
1C78
77CC
6386
C186
C1FE
C180
C180
63C0
76E6
1C7C
ENDCHAR
STARTCHAR Racute
ENCODING 340
SWIDTH 633 0
DWIDTH 12 0
BBX 9 16 2 0
BITMAP
0E00
1800
0000
FE00
C700
C300
C300
C300
C600
F800
CC00
C600
C600
C300
C180
C180
ENDCHAR
STARTCHAR racute
ENCODING 341
SWIDTH 409 0
DWIDTH 8 0
BBX 6 13 2 0
BITMAP
38
60
00
CC
DC
E0
C0
C0
C0
C0
C0
C0
C0
ENDCHAR
STARTCHAR Rcommaaccent
ENCODING 342
SWIDTH 633 0
DWIDTH 12 0
BBX 9 18 2 -5
BITMAP
FE00
C700
C300
C300
C300
C600
F800
CC00
C600
C600
C300
C180
C180
0000
1800
1800
0800
1000
ENDCHAR
STARTCHAR rcommaaccent
ENCODING 343
SWIDTH 409 0
DWIDTH 8 0
BBX 6 15 2 -5
BITMAP
CC
DC
E0
C0
C0
C0
C0
C0
C0
C0
00
60
60
20
40
ENDCHAR
STARTCHAR Rcaron
ENCODING 344
SWIDTH 633 0
DWIDTH 12 0
BBX 9 16 2 0
BITMAP
3600
1C00
0000
FE00
C700
C300
C300
C300
C600
F800
CC00
C600
C600
C300
C180
C180
ENDCHAR
STARTCHAR rcaron
ENCODING 345
SWIDTH 409 0
DWIDTH 8 0
BBX 6 13 2 0
BITMAP
D8
70
00
CC
DC
E0
C0
C0
C0
C0
C0
C0
C0
ENDCHAR
STARTCHAR Sacute
ENCODING 346
SWIDTH 539 0
DWIDTH 10 0
BBX 8 16 1 0
BITMAP
1C
30
00
3E
67
C0
C0
E0
78
1E
07
03
03
03
E6
7C
ENDCHAR
STARTCHAR sacute
ENCODING 347
SWIDTH 510 0
DWIDTH 9 0
BBX 7 13 1 0
BITMAP
1C
30
00
7C
C6
C0
E0
70
1C
0E
06
C6
7C
ENDCHAR
STARTCHAR Scircumflex
ENCODING 348
SWIDTH 539 0
DWIDTH 10 0
BBX 8 16 1 0
BITMAP
38
6C
00
3E
67
C0
C0
E0
78
1E
07
03
03
03
E6
7C
ENDCHAR
STARTCHAR scircumflex
ENCODING 349
SWIDTH 510 0
DWIDTH 9 0
BBX 7 13 1 0
BITMAP
38
6C
00
7C
C6
C0
E0
70
1C
0E
06
C6
7C
ENDCHAR
STARTCHAR Scedilla
ENCODING 350
SWIDTH 539 0
DWIDTH 10 0
BBX 8 16 1 -3
BITMAP
3E
67
C0
C0
E0
78
1E
07
03
03
03
E6
7C
18
0C
38
ENDCHAR
STARTCHAR scedilla
ENCODING 351
SWIDTH 510 0
DWIDTH 9 0
BBX 7 13 1 -3
BITMAP
7C
C6
C0
E0
70
1C
0E
06
C6
7C
18
0C
38
ENDCHAR
STARTCHAR Scaron
ENCODING 352
SWIDTH 539 0
DWIDTH 10 0
BBX 8 16 1 0
BITMAP
36
1C
00
3E
67
C0
C0
E0
78
1E
07
03
03
03
E6
7C
ENDCHAR
STARTCHAR scaron
ENCODING 353
SWIDTH 510 0
DWIDTH 9 0
BBX 7 13 1 0
BITMAP
6C
38
00
7C
C6
C0
E0
70
1C
0E
06
C6
7C
ENDCHAR
STARTCHAR Tcommaaccent
ENCODING 354
SWIDTH 633 0
DWIDTH 12 0
BBX 12 16 0 -3
BITMAP
FFF0
0600
0600
0600
0600
0600
0600
0600
0600
0600
0600
0600
0600
0600
0300
0E00
ENDCHAR
STARTCHAR tcommaaccent
ENCODING 355
SWIDTH 374 0
DWIDTH 7 0
BBX 5 15 1 -3
BITMAP
60
60
F8
60
60
60
60
60
60
60
60
38
30
18
70
ENDCHAR
STARTCHAR Tcaron
ENCODING 356
SWIDTH 633 0
DWIDTH 12 0
BBX 12 16 0 0
BITMAP
0D80
0700
0000
FFF0
0600
0600
0600
0600
0600
0600
0600
0600
0600
0600
0600
0600
ENDCHAR
STARTCHAR tcaron
ENCODING 357
SWIDTH 584 0
DWIDTH 11 0
BBX 9 14 1 0
BITMAP
0180
0180
6080
6100
F800
6000
6000
6000
6000
6000
6000
6000
6000
3800
ENDCHAR
STARTCHAR Tbar
ENCODING 358
SWIDTH 633 0
DWIDTH 12 0
BBX 12 13 0 0
BITMAP
FFF0
0600
0600
0600
0600
0600
0F80
0600
0600
0600
0600
0600
0600
ENDCHAR
STARTCHAR tbar
ENCODING 359
SWIDTH 374 0
DWIDTH 7 0
BBX 5 12 1 0
BITMAP
60
60
F8
60
60
60
F8
60
60
60
60
38
ENDCHAR
STARTCHAR Utilde
ENCODING 360
SWIDTH 693 0
DWIDTH 13 0
BBX 9 16 2 0
BITMAP
1D00
2E00
0000
C180
C180
C180
C180
C180
C180
C180
C180
C180
C180
6300
7700
1C00
ENDCHAR
STARTCHAR utilde
ENCODING 361
SWIDTH 620 0
DWIDTH 12 0
BBX 8 13 2 0
BITMAP
3A
5C
00
C3
C3
C3
C3
C3
C3
C3
C3
E7
7B
ENDCHAR
STARTCHAR Umacron
ENCODING 362
SWIDTH 693 0
DWIDTH 13 0
BBX 9 16 2 0
BITMAP
3E00
3E00
0000
C180
C180
C180
C180
C180
C180
C180
C180
C180
C180
6300
7700
1C00
ENDCHAR
STARTCHAR umacron
ENCODING 363
SWIDTH 620 0
DWIDTH 12 0
BBX 8 13 2 0
BITMAP
3E
3E
00
C3
C3
C3
C3
C3
C3
C3
C3
E7
7B
ENDCHAR
STARTCHAR Ubreve
ENCODING 364
SWIDTH 693 0
DWIDTH 13 0
BBX 9 17 2 0
BITMAP
2200
3E00
1C00
0000
C180
C180
C180
C180
C180
C180
C180
C180
C180
C180
6300
7700
1C00
ENDCHAR
STARTCHAR ubreve
ENCODING 365
SWIDTH 620 0
DWIDTH 12 0
BBX 8 14 2 0
BITMAP
22
3E
1C
00
C3
C3
C3
C3
C3
C3
C3
C3
E7
7B
ENDCHAR
STARTCHAR Uring
ENCODING 366
SWIDTH 693 0
DWIDTH 13 0
BBX 9 17 2 0
BITMAP
1C00
2600
1C00
0000
C180
C180
C180
C180
C180
C180
C180
C180
C180
C180
6300
7700
1C00
ENDCHAR
STARTCHAR uring
ENCODING 367
SWIDTH 620 0
DWIDTH 12 0
BBX 8 14 2 0
BITMAP
1C
26
1C
00
C3
C3
C3
C3
C3
C3
C3
C3
E7
7B
ENDCHAR
STARTCHAR Uhungarumlaut
ENCODING 368
SWIDTH 693 0
DWIDTH 13 0
BBX 9 17 2 0
BITMAP
1200
3600
2400
0000
C180
C180
C180
C180
C180
C180
C180
C180
C180
C180
6300
7700
1C00
ENDCHAR
STARTCHAR uhungarumlaut
ENCODING 369
SWIDTH 620 0
DWIDTH 12 0
BBX 8 14 2 0
BITMAP
12
36
24
00
C3
C3
C3
C3
C3
C3
C3
C3
E7
7B
ENDCHAR
STARTCHAR Uogonek
ENCODING 370
SWIDTH 693 0
DWIDTH 13 0
BBX 9 16 2 -3
BITMAP
C180
C180
C180
C180
C180
C180
C180
C180
C180
C180
6300
7700
1C00
0C00
1800
0E00
ENDCHAR
STARTCHAR uogonek
ENCODING 371
SWIDTH 620 0
DWIDTH 12 0
BBX 8 13 2 -3
BITMAP
C3
C3
C3
C3
C3
C3
C3
C3
E7
7B
18
30
1C
ENDCHAR
STARTCHAR Wcircumflex
ENCODING 372
SWIDTH 855 0
DWIDTH 16 0
BBX 14 16 1 0
BITMAP
0380
06C0
0000
C00C
C30C
C30C
C78C
C598
6598
6CD8
68D0
68D0
38F0
3060
3060
3060
ENDCHAR
STARTCHAR wcircumflex
ENCODING 373
SWIDTH 840 0
DWIDTH 16 0
BBX 14 13 1 0
BITMAP
0380
06C0
0000
C00C
C30C
C30C
6318
6598
6590
68D0
38F0
3060
3060
ENDCHAR
STARTCHAR Ycircumflex
ENCODING 374
SWIDTH 623 0
DWIDTH 12 0
BBX 10 16 1 0
BITMAP
1C00
3600
0000
C0C0
C0C0
6180
3100
3300
1E00
0C00
0C00
0C00
0C00
0C00
0C00
0C00
ENDCHAR
STARTCHAR ycircumflex
ENCODING 375
SWIDTH 568 0
DWIDTH 10 0
BBX 8 16 1 -3
BITMAP
38
6C
00
C3
C3
C3
62
66
66
34
3C
18
18
10
30
30
ENDCHAR
STARTCHAR Ydieresis
ENCODING 376
SWIDTH 623 0
DWIDTH 12 0
BBX 10 16 1 0
BITMAP
3300
3300
0000
C0C0
C0C0
6180
3100
3300
1E00
0C00
0C00
0C00
0C00
0C00
0C00
0C00
ENDCHAR
STARTCHAR Zacute
ENCODING 377
SWIDTH 605 0
DWIDTH 11 0
BBX 9 16 1 0
BITMAP
0700
0C00
0000
FF80
FF80
0180
0300
0600
0C00
1C00
1800
3000
6000
C000
FF80
FF80
ENDCHAR
STARTCHAR zacute
ENCODING 378
SWIDTH 573 0
DWIDTH 10 0
BBX 8 13 1 0
BITMAP
0E
18
00
FF
03
07
0E
1C
38
70
E0
C0
FF
ENDCHAR
STARTCHAR Zdotaccent
ENCODING 379
SWIDTH 605 0
DWIDTH 11 0
BBX 9 16 1 0
BITMAP
0C00
0C00
0000
FF80
FF80
0180
0300
0600
0C00
1C00
1800
3000
6000
C000
FF80
FF80
ENDCHAR
STARTCHAR zdotaccent
ENCODING 380
SWIDTH 573 0
DWIDTH 10 0
BBX 8 13 1 0
BITMAP
0C
0C
00
FF
03
07
0E
1C
38
70
E0
C0
FF
ENDCHAR
STARTCHAR Zcaron
ENCODING 381
SWIDTH 605 0
DWIDTH 11 0
BBX 9 16 1 0
BITMAP
3600
1C00
0000
FF80
FF80
0180
0300
0600
0C00
1C00
1800
3000
6000
C000
FF80
FF80
ENDCHAR
STARTCHAR zcaron
ENCODING 382
SWIDTH 573 0
DWIDTH 10 0
BBX 8 13 1 0
BITMAP
36
1C
00
FF
03
07
0E
1C
38
70
E0
C0
FF
ENDCHAR
STARTCHAR uni0186
ENCODING 390
SWIDTH 692 0
DWIDTH 13 0
BBX 11 13 1 0
BITMAP
7E00
E380
01C0
00C0
0060
0060
0060
0060
0060
00C0
00C0
E380
7E00
ENDCHAR
STARTCHAR uni0189
ENCODING 393
SWIDTH 749 0
DWIDTH 14 0
BBX 13 13 0 0
BITMAP
3FC0
3070
3030
3018
3018
3018
FC18
3018
3018
3030
3030
30E0
3F80
ENDCHAR
STARTCHAR uni018E
ENCODING 398
SWIDTH 542 0
DWIDTH 10 0
BBX 7 13 2 0
BITMAP
FE
06
06
06
06
06
7E
06
06
06
06
06
FE
ENDCHAR
STARTCHAR florin
ENCODING 402
SWIDTH 633 0
DWIDTH 12 0
BBX 10 15 2 -2
BITMAP
0F80
18C0
1800
3000
3000
3000
FE00
6000
6000
6000
6000
C000
C000
C000
C000
ENDCHAR
STARTCHAR uni0197
ENCODING 407
SWIDTH 288 0
DWIDTH 6 0
BBX 5 13 1 0
BITMAP
60
60
60
60
60
60
F8
60
60
60
60
60
60
ENDCHAR
STARTCHAR uni019A
ENCODING 410
SWIDTH 289 0
DWIDTH 6 0
BBX 5 14 1 0
BITMAP
60
60
60
60
60
60
F8
60
60
60
60
60
60
60
ENDCHAR
STARTCHAR uni019D
ENCODING 413
SWIDTH 741 0
DWIDTH 14 0
BBX 12 16 0 -3
BITMAP
3010
3810
3C10
2C10
2610
2710
2310
2190
21D0
30D0
3070
3070
3030
3000
6000
C000
ENDCHAR
STARTCHAR uni019F
ENCODING 415
SWIDTH 777 0
DWIDTH 14 0
BBX 12 13 1 0
BITMAP
0F00
39C0
6060
6060
C030
C030
FFF0
C030
C030
6060
6060
39C0
0F00
ENDCHAR
STARTCHAR Ohorn
ENCODING 416
SWIDTH 777 0
DWIDTH 14 0
BBX 13 13 1 0
BITMAP
0F18
39D8
6068
6070
C030
C030
C030
C030
C030
6060
6060
39C0
0F00
ENDCHAR
STARTCHAR ohorn
ENCODING 417
SWIDTH 614 0
DWIDTH 11 0
BBX 10 10 1 0
BITMAP
1CC0
77C0
6340
C180
C180
C180
C180
6300
7700
1C00
ENDCHAR
STARTCHAR uni01A7
ENCODING 423
SWIDTH 539 0
DWIDTH 10 0
BBX 8 13 1 0
BITMAP
7C
E6
03
03
07
1E
78
E0
C0
C0
C0
67
3E
ENDCHAR
STARTCHAR uni01A8
ENCODING 424
SWIDTH 510 0
DWIDTH 9 0
BBX 7 10 1 0
BITMAP
7C
C6
06
0E
1C
70
E0
C0
C6
7C
ENDCHAR
STARTCHAR uni01AE
ENCODING 430
SWIDTH 633 0
DWIDTH 12 0
BBX 12 16 0 -3
BITMAP
FFF0
0600
0600
0600
0600
0600
0600
0600
0600
0600
0600
0600
0600
0600
0300
0180
ENDCHAR
STARTCHAR Uhorn
ENCODING 431
SWIDTH 693 0
DWIDTH 13 0
BBX 10 13 2 0
BITMAP
C1C0
C1C0
C1C0
C180
C180
C180
C180
C180
C180
C180
6300
7700
1C00
ENDCHAR
STARTCHAR uhorn
ENCODING 432
SWIDTH 620 0
DWIDTH 12 0
BBX 10 10 2 0
BITMAP
C3C0
C3C0
C340
C380
C300
C300
C300
C300
E700
7B00
ENDCHAR
STARTCHAR uni01B5
ENCODING 437
SWIDTH 605 0
DWIDTH 11 0
BBX 9 13 1 0
BITMAP
FF80
FF80
0180
0300
0600
0C00
3E00
1800
3000
6000
C000
FF80
FF80
ENDCHAR
STARTCHAR uni01B6
ENCODING 438
SWIDTH 573 0
DWIDTH 10 0
BBX 8 10 1 0
BITMAP
FF
03
07
0E
3E
38
70
E0
C0
FF
ENDCHAR
STARTCHAR uni01BB
ENCODING 443
SWIDTH 633 0
DWIDTH 12 0
BBX 8 13 2 0
BITMAP
7E
C7
03
03
03
06
FF
18
30
60
C0
FF
FF
ENDCHAR
STARTCHAR uni01BC
ENCODING 444
SWIDTH 633 0
DWIDTH 12 0
BBX 8 13 3 0
BITMAP
FF
FF
80
80
80
F8
1E
07
03
03
03
C7
7E
ENDCHAR
STARTCHAR uni01C0
ENCODING 448
SWIDTH 265 0
DWIDTH 4 0
BBX 2 16 1 -2
BITMAP
C0
C0
C0
C0
C0
C0
C0
C0
C0
C0
C0
C0
C0
C0
C0
C0
ENDCHAR
STARTCHAR uni01C2
ENCODING 450
SWIDTH 633 0
DWIDTH 12 0
BBX 9 16 2 -3
BITMAP
0C00
0C00
0C00
0C00
0C00
0C00
FF80
0C00
0C00
FF80
0C00
0C00
0C00
0C00
0C00
0C00
ENDCHAR
STARTCHAR uni01C3
ENCODING 451
SWIDTH 205 0
DWIDTH 4 0
BBX 2 13 1 0
BITMAP
C0
C0
C0
C0
C0
C0
C0
C0
40
00
00
C0
C0
ENDCHAR
STARTCHAR uni01CD
ENCODING 461
SWIDTH 690 0
DWIDTH 13 0
BBX 11 16 1 0
BITMAP
1B00
0E00
0000
0600
0600
0F00
0B00
1980
1180
3180
20C0
7FC0
60C0
4060
C060
C060
ENDCHAR
STARTCHAR uni01CE
ENCODING 462
SWIDTH 552 0
DWIDTH 10 0
BBX 9 13 1 0
BITMAP
3600
1C00
0000
3E00
6700
0300
0300
3F00
6300
C300
C300
E700
7980
ENDCHAR
STARTCHAR uni01CF
ENCODING 463
SWIDTH 288 0
DWIDTH 6 0
BBX 5 16 1 0
BITMAP
D8
70
00
60
60
60
60
60
60
60
60
60
60
60
60
60
ENDCHAR
STARTCHAR uni01D0
ENCODING 464
SWIDTH 289 0
DWIDTH 6 0
BBX 5 13 1 0
BITMAP
D8
70
00
60
60
60
60
60
60
60
60
60
60
ENDCHAR
STARTCHAR uni01D1
ENCODING 465
SWIDTH 777 0
DWIDTH 14 0
BBX 12 16 1 0
BITMAP
0D80
0700
0000
0F00
39C0
6060
6060
C030
C030
C030
C030
C030
6060
6060
39C0
0F00
ENDCHAR
STARTCHAR uni01D2
ENCODING 466
SWIDTH 614 0
DWIDTH 11 0
BBX 9 13 1 0
BITMAP
3600
1C00
0000
1C00
7700
6300
C180
C180
C180
C180
6300
7700
1C00
ENDCHAR
STARTCHAR uni01D3
ENCODING 467
SWIDTH 693 0
DWIDTH 13 0
BBX 9 16 2 0
BITMAP
3600
1C00
0000
C180
C180
C180
C180
C180
C180
C180
C180
C180
C180
6300
7700
1C00
ENDCHAR
STARTCHAR uni01D4
ENCODING 468
SWIDTH 620 0
DWIDTH 12 0
BBX 8 13 2 0
BITMAP
36
1C
00
C3
C3
C3
C3
C3
C3
C3
C3
E7
7B
ENDCHAR
STARTCHAR uni01D5
ENCODING 469
SWIDTH 693 0
DWIDTH 13 0
BBX 9 19 2 0
BITMAP
3E00
3E00
0000
3300
3300
0000
C180
C180
C180
C180
C180
C180
C180
C180
C180
C180
6300
7700
1C00
ENDCHAR
STARTCHAR uni01D6
ENCODING 470
SWIDTH 620 0
DWIDTH 12 0
BBX 8 16 2 0
BITMAP
3E
3E
00
66
66
00
C3
C3
C3
C3
C3
C3
C3
C3
E7
7B
ENDCHAR
STARTCHAR uni01D7
ENCODING 471
SWIDTH 693 0
DWIDTH 13 0
BBX 9 19 2 0
BITMAP
0E00
1800
0000
3300
3300
0000
C180
C180
C180
C180
C180
C180
C180
C180
C180
C180
6300
7700
1C00
ENDCHAR
STARTCHAR uni01D8
ENCODING 472
SWIDTH 620 0
DWIDTH 12 0
BBX 8 16 2 0
BITMAP
0E
18
00
66
66
00
C3
C3
C3
C3
C3
C3
C3
C3
E7
7B
ENDCHAR
STARTCHAR uni01D9
ENCODING 473
SWIDTH 693 0
DWIDTH 13 0
BBX 9 19 2 0
BITMAP
3600
1C00
0000
3300
3300
0000
C180
C180
C180
C180
C180
C180
C180
C180
C180
C180
6300
7700
1C00
ENDCHAR
STARTCHAR uni01DA
ENCODING 474
SWIDTH 620 0
DWIDTH 12 0
BBX 8 16 2 0
BITMAP
36
1C
00
66
66
00
C3
C3
C3
C3
C3
C3
C3
C3
E7
7B
ENDCHAR
STARTCHAR uni01DB
ENCODING 475
SWIDTH 693 0
DWIDTH 13 0
BBX 9 19 2 0
BITMAP
3800
0C00
0000
3300
3300
0000
C180
C180
C180
C180
C180
C180
C180
C180
C180
C180
6300
7700
1C00
ENDCHAR
STARTCHAR uni01DC
ENCODING 476
SWIDTH 620 0
DWIDTH 12 0
BBX 8 16 2 0
BITMAP
70
18
00
66
66
00
C3
C3
C3
C3
C3
C3
C3
C3
E7
7B
ENDCHAR
STARTCHAR uni01DD
ENCODING 477
SWIDTH 557 0
DWIDTH 10 0
BBX 8 10 1 0
BITMAP
7C
CE
07
03
03
FF
C3
C3
66
3C
ENDCHAR
STARTCHAR uni01DE
ENCODING 478
SWIDTH 690 0
DWIDTH 13 0
BBX 11 19 1 0
BITMAP
1F00
1F00
0000
1980
1980
0000
0600
0600
0F00
0B00
1980
1180
3180
20C0
7FC0
60C0
4060
C060
C060
ENDCHAR
STARTCHAR uni01DF
ENCODING 479
SWIDTH 552 0
DWIDTH 10 0
BBX 9 16 1 0
BITMAP
3E00
3E00
0000
6600
6600
0000
3E00
6700
0300
0300
3F00
6300
C300
C300
E700
7980
ENDCHAR
STARTCHAR uni01E0
ENCODING 480
SWIDTH 690 0
DWIDTH 13 0
BBX 11 19 1 0
BITMAP
1F00
1F00
0000
0600
0600
0000
0600
0600
0F00
0B00
1980
1180
3180
20C0
7FC0
60C0
4060
C060
C060
ENDCHAR
STARTCHAR uni01E1
ENCODING 481
SWIDTH 552 0
DWIDTH 10 0
BBX 9 16 1 0
BITMAP
3E00
3E00
0000
0C00
0C00
0000
3E00
6700
0300
0300
3F00
6300
C300
C300
E700
7980
ENDCHAR
STARTCHAR uni01E2
ENCODING 482
SWIDTH 907 0
DWIDTH 17 0
BBX 14 16 2 0
BITMAP
07C0
07C0
0000
03FC
0780
0580
0D80
0980
1980
11F8
3180
3F80
6180
4180
C180
C1FC
ENDCHAR
STARTCHAR uni01E3
ENCODING 483
SWIDTH 853 0
DWIDTH 16 0
BBX 14 13 1 0
BITMAP
07C0
07C0
0000
3EF0
6798
030C
030C
3FFC
6300
C300
C380
E7CC
78F8
ENDCHAR
STARTCHAR uni01E4
ENCODING 484
SWIDTH 723 0
DWIDTH 13 0
BBX 12 13 1 0
BITMAP
0FC0
38E0
6000
6000
C000
C000
C000
C060
C1F0
6060
7060
3860
0FE0
ENDCHAR
STARTCHAR uni01E5
ENCODING 485
SWIDTH 623 0
DWIDTH 12 0
BBX 9 13 1 -3
BITMAP
1D80
7380
6180
C180
C180
C180
C180
6380
3D80
FF80
0180
6300
3E00
ENDCHAR
STARTCHAR Gcaron
ENCODING 486
SWIDTH 723 0
DWIDTH 13 0
BBX 11 16 1 0
BITMAP
1B00
0E00
0000
0FC0
38E0
6000
6000
C000
C000
C000
C060
C060
6060
7060
3860
0FE0
ENDCHAR
STARTCHAR gcaron
ENCODING 487
SWIDTH 623 0
DWIDTH 12 0
BBX 9 16 1 -3
BITMAP
3600
1C00
0000
1D80
7380
6180
C180
C180
C180
C180
6380
3D80
0180
0180
6300
3E00
ENDCHAR
STARTCHAR uni01E8
ENCODING 488
SWIDTH 653 0
DWIDTH 12 0
BBX 10 16 2 0
BITMAP
3600
1C00
0000
C180
C300
C600
CC00
D800
F000
F000
D800
CC00
C600
C300
C180
C0C0
ENDCHAR
STARTCHAR uni01E9
ENCODING 489
SWIDTH 585 0
DWIDTH 11 0
BBX 9 17 2 0
BITMAP
D800
7000
0000
C000
C000
C000
C000
C300
C600
CC00
D800
F000
D800
CC00
C600
C300
C180
ENDCHAR
STARTCHAR uni01EA
ENCODING 490
SWIDTH 777 0
DWIDTH 14 0
BBX 12 16 1 -3
BITMAP
0F00
39C0
6060
6060
C030
C030
C030
C030
C030
6060
6060
39C0
0F00
0600
0C00
0700
ENDCHAR
STARTCHAR uni01EB
ENCODING 491
SWIDTH 614 0
DWIDTH 11 0
BBX 9 13 1 -3
BITMAP
1C00
7700
6300
C180
C180
C180
C180
6300
7700
1C00
0C00
1800
0E00
ENDCHAR
STARTCHAR uni01EC
ENCODING 492
SWIDTH 777 0
DWIDTH 14 0
BBX 12 19 1 -3
BITMAP
0F80
0F80
0000
0F00
39C0
6060
6060
C030
C030
C030
C030
C030
6060
6060
39C0
0F00
0600
0C00
0700
ENDCHAR
STARTCHAR uni01ED
ENCODING 493
SWIDTH 614 0
DWIDTH 11 0
BBX 9 16 1 -3
BITMAP
3E00
3E00
0000
1C00
7700
6300
C180
C180
C180
C180
6300
7700
1C00
0C00
1800
0E00
ENDCHAR
STARTCHAR uni01F0
ENCODING 496
SWIDTH 304 0
DWIDTH 6 0
BBX 5 16 0 -3
BITMAP
D8
70
00
30
30
30
30
30
30
30
30
30
30
30
60
C0
ENDCHAR
STARTCHAR uni01F4
ENCODING 500
SWIDTH 723 0
DWIDTH 13 0
BBX 11 16 1 0
BITMAP
0700
0C00
0000
0FC0
38E0
6000
6000
C000
C000
C000
C060
C060
6060
7060
3860
0FE0
ENDCHAR
STARTCHAR uni01F5
ENCODING 501
SWIDTH 623 0
DWIDTH 12 0
BBX 9 16 1 -3
BITMAP
0700
0C00
0000
1D80
7380
6180
C180
C180
C180
C180
6380
3D80
0180
0180
6300
3E00
ENDCHAR
STARTCHAR uni01F8
ENCODING 504
SWIDTH 741 0
DWIDTH 14 0
BBX 10 16 2 0
BITMAP
7000
1800
0000
C040
E040
F040
B040
9840
9C40
8C40
8640
8740
8340
81C0
81C0
80C0
ENDCHAR
STARTCHAR uni01F9
ENCODING 505
SWIDTH 620 0
DWIDTH 12 0
BBX 8 13 2 0
BITMAP
70
18
00
DE
E7
C3
C3
C3
C3
C3
C3
C3
C3
ENDCHAR
STARTCHAR Aringacute
ENCODING 506
SWIDTH 690 0
DWIDTH 13 0
BBX 11 19 1 0
BITMAP
0700
0C00
0000
0E00
1300
0E00
0600
0600
0F00
0B00
1980
1180
3180
20C0
7FC0
60C0
4060
C060
C060
ENDCHAR
STARTCHAR aringacute
ENCODING 507
SWIDTH 552 0
DWIDTH 10 0
BBX 9 16 1 0
BITMAP
0E00
1800
0000
1C00
2600
1C00
3E00
6700
0300
0300
3F00
6300
C300
C300
E700
7980
ENDCHAR
STARTCHAR AEacute
ENCODING 508
SWIDTH 907 0
DWIDTH 17 0
BBX 14 16 2 0
BITMAP
01C0
0300
0000
03FC
0780
0580
0D80
0980
1980
11F8
3180
3F80
6180
4180
C180
C1FC
ENDCHAR
STARTCHAR aeacute
ENCODING 509
SWIDTH 853 0
DWIDTH 16 0
BBX 14 13 1 0
BITMAP
01C0
0300
0000
3EF0
6798
030C
030C
3FFC
6300
C300
C380
E7CC
78F8
ENDCHAR
STARTCHAR Oslashacute
ENCODING 510
SWIDTH 777 0
DWIDTH 14 0
BBX 12 18 1 -1
BITMAP
0380
0600
0000
0020
0F60
39C0
60E0
6160
C130
C230
C230
C430
C830
6860
7060
39C0
6F00
4000
ENDCHAR
STARTCHAR oslashacute
ENCODING 511
SWIDTH 614 0
DWIDTH 11 0
BBX 9 13 1 0
BITMAP
0700
0C00
0000
1C80
7780
6300
C580
C980
C980
D180
6300
F700
9C00
ENDCHAR
STARTCHAR uni0200
ENCODING 512
SWIDTH 690 0
DWIDTH 13 0
BBX 11 17 1 0
BITMAP
1200
1B00
0900
0000
0600
0600
0F00
0B00
1980
1180
3180
20C0
7FC0
60C0
4060
C060
C060
ENDCHAR
STARTCHAR uni0201
ENCODING 513
SWIDTH 552 0
DWIDTH 10 0
BBX 9 14 1 0
BITMAP
2400
3600
1200
0000
3E00
6700
0300
0300
3F00
6300
C300
C300
E700
7980
ENDCHAR
STARTCHAR uni0202
ENCODING 514
SWIDTH 690 0
DWIDTH 13 0
BBX 11 17 1 0
BITMAP
0E00
1F00
1100
0000
0600
0600
0F00
0B00
1980
1180
3180
20C0
7FC0
60C0
4060
C060
C060
ENDCHAR
STARTCHAR uni0203
ENCODING 515
SWIDTH 552 0
DWIDTH 10 0
BBX 9 14 1 0
BITMAP
1C00
3E00
2200
0000
3E00
6700
0300
0300
3F00
6300
C300
C300
E700
7980
ENDCHAR
STARTCHAR uni0204
ENCODING 516
SWIDTH 542 0
DWIDTH 10 0
BBX 7 17 2 0
BITMAP
90
D8
48
00
FE
C0
C0
C0
C0
C0
FC
C0
C0
C0
C0
C0
FE
ENDCHAR
STARTCHAR uni0205
ENCODING 517
SWIDTH 557 0
DWIDTH 10 0
BBX 8 14 1 0
BITMAP
48
6C
24
00
3C
66
C3
C3
FF
C0
C0
E0
73
3E
ENDCHAR
STARTCHAR uni0206
ENCODING 518
SWIDTH 542 0
DWIDTH 10 0
BBX 7 17 2 0
BITMAP
70
F8
88
00
FE
C0
C0
C0
C0
C0
FC
C0
C0
C0
C0
C0
FE
ENDCHAR
STARTCHAR uni0207
ENCODING 519
SWIDTH 557 0
DWIDTH 10 0
BBX 8 14 1 0
BITMAP
1C
3E
22
00
3C
66
C3
C3
FF
C0
C0
E0
73
3E
ENDCHAR
STARTCHAR uni0208
ENCODING 520
SWIDTH 288 0
DWIDTH 6 0
BBX 5 17 0 0
BITMAP
90
D8
48
00
30
30
30
30
30
30
30
30
30
30
30
30
30
ENDCHAR
STARTCHAR uni0209
ENCODING 521
SWIDTH 289 0
DWIDTH 6 0
BBX 5 14 0 0
BITMAP
90
D8
48
00
30
30
30
30
30
30
30
30
30
30
ENDCHAR
STARTCHAR uni020A
ENCODING 522
SWIDTH 288 0
DWIDTH 6 0
BBX 5 17 1 0
BITMAP
70
F8
88
00
60
60
60
60
60
60
60
60
60
60
60
60
60
ENDCHAR
STARTCHAR uni020B
ENCODING 523
SWIDTH 289 0
DWIDTH 6 0
BBX 5 14 1 0
BITMAP
70
F8
88
00
60
60
60
60
60
60
60
60
60
60
ENDCHAR
STARTCHAR uni020C
ENCODING 524
SWIDTH 777 0
DWIDTH 14 0
BBX 12 17 1 0
BITMAP
1200
1B00
0900
0000
0F00
39C0
6060
6060
C030
C030
C030
C030
C030
6060
6060
39C0
0F00
ENDCHAR
STARTCHAR uni020D
ENCODING 525
SWIDTH 614 0
DWIDTH 11 0
BBX 9 14 1 0
BITMAP
2400
3600
1200
0000
1C00
7700
6300
C180
C180
C180
C180
6300
7700
1C00
ENDCHAR
STARTCHAR uni020E
ENCODING 526
SWIDTH 777 0
DWIDTH 14 0
BBX 12 17 1 0
BITMAP
0700
0F80
0880
0000
0F00
39C0
6060
6060
C030
C030
C030
C030
C030
6060
6060
39C0
0F00
ENDCHAR
STARTCHAR uni020F
ENCODING 527
SWIDTH 614 0
DWIDTH 11 0
BBX 9 14 1 0
BITMAP
1C00
3E00
2200
0000
1C00
7700
6300
C180
C180
C180
C180
6300
7700
1C00
ENDCHAR
STARTCHAR uni0210
ENCODING 528
SWIDTH 633 0
DWIDTH 12 0
BBX 9 17 2 0
BITMAP
4800
6C00
2400
0000
FE00
C700
C300
C300
C300
C600
F800
CC00
C600
C600
C300
C180
C180
ENDCHAR
STARTCHAR uni0211
ENCODING 529
SWIDTH 409 0
DWIDTH 8 0
BBX 6 14 2 0
BITMAP
90
D8
48
00
CC
DC
E0
C0
C0
C0
C0
C0
C0
C0
ENDCHAR
STARTCHAR uni0212
ENCODING 530
SWIDTH 633 0
DWIDTH 12 0
BBX 9 17 2 0
BITMAP
1C00
3E00
2200
0000
FE00
C700
C300
C300
C300
C600
F800
CC00
C600
C600
C300
C180
C180
ENDCHAR
STARTCHAR uni0213
ENCODING 531
SWIDTH 409 0
DWIDTH 8 0
BBX 6 14 2 0
BITMAP
70
F8
88
00
CC
DC
E0
C0
C0
C0
C0
C0
C0
C0
ENDCHAR
STARTCHAR uni0214
ENCODING 532
SWIDTH 693 0
DWIDTH 13 0
BBX 9 17 2 0
BITMAP
2400
3600
1200
0000
C180
C180
C180
C180
C180
C180
C180
C180
C180
C180
6300
7700
1C00
ENDCHAR
STARTCHAR uni0215
ENCODING 533
SWIDTH 620 0
DWIDTH 12 0
BBX 8 14 2 0
BITMAP
48
6C
24
00
C3
C3
C3
C3
C3
C3
C3
C3
E7
7B
ENDCHAR
STARTCHAR uni0216
ENCODING 534
SWIDTH 693 0
DWIDTH 13 0
BBX 9 17 2 0
BITMAP
1C00
3E00
2200
0000
C180
C180
C180
C180
C180
C180
C180
C180
C180
C180
6300
7700
1C00
ENDCHAR
STARTCHAR uni0217
ENCODING 535
SWIDTH 620 0
DWIDTH 12 0
BBX 8 14 2 0
BITMAP
1C
3E
22
00
C3
C3
C3
C3
C3
C3
C3
C3
E7
7B
ENDCHAR
STARTCHAR Scommaaccent
ENCODING 536
SWIDTH 539 0
DWIDTH 10 0
BBX 8 18 1 -5
BITMAP
3E
67
C0
C0
E0
78
1E
07
03
03
03
E6
7C
00
18
18
08
10
ENDCHAR
STARTCHAR scommaaccent
ENCODING 537
SWIDTH 510 0
DWIDTH 9 0
BBX 7 15 1 -5
BITMAP
7C
C6
C0
E0
70
1C
0E
06
C6
7C
00
18
18
08
10
ENDCHAR
STARTCHAR Tcommaaccent
ENCODING 538
SWIDTH 633 0
DWIDTH 12 0
BBX 12 18 0 -5
BITMAP
FFF0
0600
0600
0600
0600
0600
0600
0600
0600
0600
0600
0600
0600
0000
0600
0600
0200
0400
ENDCHAR
STARTCHAR tcommaaccent
ENCODING 539
SWIDTH 374 0
DWIDTH 7 0
BBX 5 17 1 -5
BITMAP
60
60
F8
60
60
60
60
60
60
60
60
38
00
30
30
10
20
ENDCHAR
STARTCHAR uni021E
ENCODING 542
SWIDTH 735 0
DWIDTH 14 0
BBX 10 16 2 0
BITMAP
1B00
0E00
0000
C0C0
C0C0
C0C0
C0C0
C0C0
C0C0
FFC0
C0C0
C0C0
C0C0
C0C0
C0C0
C0C0
ENDCHAR
STARTCHAR uni021F
ENCODING 543
SWIDTH 620 0
DWIDTH 12 0
BBX 8 17 2 0
BITMAP
D8
70
00
C0
C0
C0
C0
DE
E7
C3
C3
C3
C3
C3
C3
C3
C3
ENDCHAR
STARTCHAR uni0226
ENCODING 550
SWIDTH 690 0
DWIDTH 13 0
BBX 11 16 1 0
BITMAP
0600
0600
0000
0600
0600
0F00
0B00
1980
1180
3180
20C0
7FC0
60C0
4060
C060
C060
ENDCHAR
STARTCHAR uni0227
ENCODING 551
SWIDTH 552 0
DWIDTH 10 0
BBX 9 13 1 0
BITMAP
0C00
0C00
0000
3E00
6700
0300
0300
3F00
6300
C300
C300
E700
7980
ENDCHAR
STARTCHAR uni0228
ENCODING 552
SWIDTH 542 0
DWIDTH 10 0
BBX 7 16 2 -3
BITMAP
FE
C0
C0
C0
C0
C0
FC
C0
C0
C0
C0
C0
FE
30
18
70
ENDCHAR
STARTCHAR uni0229
ENCODING 553
SWIDTH 557 0
DWIDTH 10 0
BBX 8 13 1 -3
BITMAP
3C
66
C3
C3
FF
C0
C0
E0
73
3E
18
0C
38
ENDCHAR
STARTCHAR uni022A
ENCODING 554
SWIDTH 777 0
DWIDTH 14 0
BBX 12 19 1 0
BITMAP
0F80
0F80
0000
1980
1980
0000
0F00
39C0
6060
6060
C030
C030
C030
C030
C030
6060
6060
39C0
0F00
ENDCHAR
STARTCHAR uni022B
ENCODING 555
SWIDTH 614 0
DWIDTH 11 0
BBX 9 16 1 0
BITMAP
3E00
3E00
0000
3300
3300
0000
1C00
7700
6300
C180
C180
C180
C180
6300
7700
1C00
ENDCHAR
STARTCHAR uni022C
ENCODING 556
SWIDTH 777 0
DWIDTH 14 0
BBX 12 19 1 0
BITMAP
0F80
0F80
0000
0E80
1700
0000
0F00
39C0
6060
6060
C030
C030
C030
C030
C030
6060
6060
39C0
0F00
ENDCHAR
STARTCHAR uni022D
ENCODING 557
SWIDTH 614 0
DWIDTH 11 0
BBX 9 16 1 0
BITMAP
3E00
3E00
0000
1D00
2E00
0000
1C00
7700
6300
C180
C180
C180
C180
6300
7700
1C00
ENDCHAR
STARTCHAR uni022E
ENCODING 558
SWIDTH 777 0
DWIDTH 14 0
BBX 12 16 1 0
BITMAP
0600
0600
0000
0F00
39C0
6060
6060
C030
C030
C030
C030
C030
6060
6060
39C0
0F00
ENDCHAR
STARTCHAR uni022F
ENCODING 559
SWIDTH 614 0
DWIDTH 11 0
BBX 9 13 1 0
BITMAP
0C00
0C00
0000
1C00
7700
6300
C180
C180
C180
C180
6300
7700
1C00
ENDCHAR
STARTCHAR uni0230
ENCODING 560
SWIDTH 777 0
DWIDTH 14 0
BBX 12 19 1 0
BITMAP
0F80
0F80
0000
0600
0600
0000
0F00
39C0
6060
6060
C030
C030
C030
C030
C030
6060
6060
39C0
0F00
ENDCHAR
STARTCHAR uni0231
ENCODING 561
SWIDTH 614 0
DWIDTH 11 0
BBX 9 16 1 0
BITMAP
3E00
3E00
0000
0C00
0C00
0000
1C00
7700
6300
C180
C180
C180
C180
6300
7700
1C00
ENDCHAR
STARTCHAR uni0232
ENCODING 562
SWIDTH 623 0
DWIDTH 12 0
BBX 10 16 1 0
BITMAP
3E00
3E00
0000
C0C0
C0C0
6180
3100
3300
1E00
0C00
0C00
0C00
0C00
0C00
0C00
0C00
ENDCHAR
STARTCHAR uni0233
ENCODING 563
SWIDTH 568 0
DWIDTH 10 0
BBX 8 16 1 -3
BITMAP
7C
7C
00
C3
C3
C3
62
66
66
34
3C
18
18
10
30
30
ENDCHAR
STARTCHAR uni0250
ENCODING 592
SWIDTH 552 0
DWIDTH 10 0
BBX 9 10 1 0
BITMAP
CF00
7380
6180
6180
6300
7E00
6000
6000
7300
3E00
ENDCHAR
STARTCHAR uni0254
ENCODING 596
SWIDTH 518 0
DWIDTH 10 0
BBX 8 10 1 0
BITMAP
78
CE
06
03
03
03
03
06
CE
78
ENDCHAR
STARTCHAR uni0258
ENCODING 600
SWIDTH 557 0
DWIDTH 10 0
BBX 8 10 1 0
BITMAP
3C
66
C3
C3
FF
03
03
07
CE
7C
ENDCHAR
STARTCHAR uni0259
ENCODING 601
SWIDTH 557 0
DWIDTH 10 0
BBX 8 10 1 0
BITMAP
7C
CE
07
03
03
FF
C3
C3
66
3C
ENDCHAR
STARTCHAR uni025F
ENCODING 607
SWIDTH 367 0
DWIDTH 7 0
BBX 6 14 1 -4
BITMAP
18
18
18
18
18
18
18
18
18
FC
18
18
30
E0
ENDCHAR
STARTCHAR uni0265
ENCODING 613
SWIDTH 620 0
DWIDTH 12 0
BBX 8 14 2 -4
BITMAP
C3
C3
C3
C3
C3
C3
C3
C3
E7
7B
03
03
03
03
ENDCHAR
STARTCHAR uni0275
ENCODING 629
SWIDTH 614 0
DWIDTH 11 0
BBX 9 10 1 0
BITMAP
1C00
7700
6300
C180
FF80
C180
C180
6300
7700
1C00
ENDCHAR
STARTCHAR uni0279
ENCODING 633
SWIDTH 409 0
DWIDTH 8 0
BBX 6 10 2 0
BITMAP
0C
0C
0C
0C
0C
0C
0C
1C
EC
CC
ENDCHAR
STARTCHAR uni0287
ENCODING 647
SWIDTH 374 0
DWIDTH 7 0
BBX 5 12 1 0
BITMAP
E0
30
30
30
30
30
30
30
30
F8
30
30
ENDCHAR
STARTCHAR uni0288
ENCODING 648
SWIDTH 374 0
DWIDTH 7 0
BBX 5 15 1 -3
BITMAP
60
60
F8
60
60
60
60
60
60
60
60
60
60
30
18
ENDCHAR
STARTCHAR uni0289
ENCODING 649
SWIDTH 620 0
DWIDTH 12 0
BBX 8 10 2 0
BITMAP
C3
C3
C3
C3
FF
C3
C3
C3
E7
7B
ENDCHAR
STARTCHAR uni028C
ENCODING 652
SWIDTH 572 0
DWIDTH 10 0
BBX 8 10 1 0
BITMAP
18
18
2C
2C
66
66
46
C3
C3
C3
ENDCHAR
STARTCHAR uni028D
ENCODING 653
SWIDTH 840 0
DWIDTH 16 0
BBX 14 10 1 0
BITMAP
1830
1830
3C70
2C58
2698
6698
6318
C30C
C30C
C00C
ENDCHAR
STARTCHAR uni028E
ENCODING 654
SWIDTH 568 0
DWIDTH 10 0
BBX 8 13 1 0
BITMAP
0C
0C
08
18
18
3C
2C
66
66
46
C3
C3
C3
ENDCHAR
STARTCHAR uni029E
ENCODING 670
SWIDTH 585 0
DWIDTH 11 0
BBX 9 14 2 -4
BITMAP
C180
6180
3180
1980
0D80
0780
0D80
1980
3180
6180
0180
0180
0180
0180
ENDCHAR
STARTCHAR uni02BB
ENCODING 699
SWIDTH 229 0
DWIDTH 4 0
BBX 2 4 1 10
BITMAP
40
80
C0
C0
ENDCHAR
STARTCHAR afii57929
ENCODING 700
SWIDTH 229 0
DWIDTH 4 0
BBX 2 4 1 10
BITMAP
C0
C0
40
80
ENDCHAR
STARTCHAR afii64937
ENCODING 701
SWIDTH 229 0
DWIDTH 4 0
BBX 2 4 1 10
BITMAP
C0
C0
80
40
ENDCHAR
STARTCHAR circumflex
ENCODING 710
SWIDTH 614 0
DWIDTH 11 0
BBX 5 2 3 11
BITMAP
70
D8
ENDCHAR
STARTCHAR caron
ENCODING 711
SWIDTH 614 0
DWIDTH 11 0
BBX 5 2 3 11
BITMAP
D8
70
ENDCHAR
STARTCHAR uni02C8
ENCODING 712
SWIDTH 229 0
DWIDTH 4 0
BBX 2 4 1 10
BITMAP
C0
C0
80
80
ENDCHAR
STARTCHAR macron
ENCODING 713
SWIDTH 614 0
DWIDTH 11 0
BBX 5 2 3 11
BITMAP
F8
F8
ENDCHAR
STARTCHAR uni02CA
ENCODING 714
SWIDTH 614 0
DWIDTH 11 0
BBX 4 2 4 11
BITMAP
70
C0
ENDCHAR
STARTCHAR uni02CB
ENCODING 715
SWIDTH 614 0
DWIDTH 11 0
BBX 4 2 3 11
BITMAP
E0
30
ENDCHAR
STARTCHAR uni02CD
ENCODING 717
SWIDTH 614 0
DWIDTH 11 0
BBX 5 2 3 -3
BITMAP
F8
F8
ENDCHAR
STARTCHAR uni02CE
ENCODING 718
SWIDTH 614 0
DWIDTH 11 0
BBX 4 2 3 -3
BITMAP
E0
30
ENDCHAR
STARTCHAR uni02CF
ENCODING 719
SWIDTH 614 0
DWIDTH 11 0
BBX 4 2 4 -3
BITMAP
70
C0
ENDCHAR
STARTCHAR breve
ENCODING 728
SWIDTH 614 0
DWIDTH 11 0
BBX 5 3 3 11
BITMAP
88
F8
70
ENDCHAR
STARTCHAR dotaccent
ENCODING 729
SWIDTH 614 0
DWIDTH 11 0
BBX 2 2 5 11
BITMAP
C0
C0
ENDCHAR
STARTCHAR ring
ENCODING 730
SWIDTH 614 0
DWIDTH 11 0
BBX 5 3 3 10
BITMAP
70
98
70
ENDCHAR
STARTCHAR ogonek
ENCODING 731
SWIDTH 614 0
DWIDTH 11 0
BBX 4 3 4 -3
BITMAP
60
C0
70
ENDCHAR
STARTCHAR tilde
ENCODING 732
SWIDTH 614 0
DWIDTH 11 0
BBX 6 2 2 11
BITMAP
74
B8
ENDCHAR
STARTCHAR hungarumlaut
ENCODING 733
SWIDTH 614 0
DWIDTH 11 0
BBX 5 3 3 11
BITMAP
48
D8
90
ENDCHAR
STARTCHAR uni02EE
ENCODING 750
SWIDTH 373 0
DWIDTH 7 0
BBX 5 4 1 10
BITMAP
D8
D8
48
90
ENDCHAR
STARTCHAR uni037E
ENCODING 894
SWIDTH 316 0
DWIDTH 4 0
BBX 2 12 1 -2
BITMAP
C0
C0
00
00
00
00
00
00
C0
C0
40
80
ENDCHAR
STARTCHAR tonos
ENCODING 900
SWIDTH 614 0
DWIDTH 11 0
BBX 4 2 4 11
BITMAP
70
C0
ENDCHAR
STARTCHAR dieresistonos
ENCODING 901
SWIDTH 614 0
DWIDTH 11 0
BBX 6 5 3 11
BITMAP
1C
30
00
CC
CC
ENDCHAR
STARTCHAR anoteleia
ENCODING 903
SWIDTH 316 0
DWIDTH 12 0
BBX 3 3 5 4
BITMAP
E0
E0
E0
ENDCHAR
STARTCHAR mu
ENCODING 956
SWIDTH 627 0
DWIDTH 12 0
BBX 8 13 2 -3
BITMAP
C3
C3
C3
C3
C3
C3
C3
C3
E7
FB
C0
C0
C0
ENDCHAR
STARTCHAR uni1E00
ENCODING 7680
SWIDTH 690 0
DWIDTH 13 0
BBX 11 17 1 -4
BITMAP
0600
0600
0F00
0B00
1980
1180
3180
20C0
7FC0
60C0
4060
C060
C060
0000
0E00
1300
0E00
ENDCHAR
STARTCHAR uni1E01
ENCODING 7681
SWIDTH 552 0
DWIDTH 10 0
BBX 9 14 1 -4
BITMAP
3E00
6700
0300
0300
3F00
6300
C300
C300
E700
7980
0000
1C00
2600
1C00
ENDCHAR
STARTCHAR uni1E02
ENCODING 7682
SWIDTH 575 0
DWIDTH 11 0
BBX 8 16 2 0
BITMAP
18
18
00
FE
C7
C3
C3
C3
C6
FC
C6
C3
C3
C3
C7
FE
ENDCHAR
STARTCHAR uni1E03
ENCODING 7683
SWIDTH 630 0
DWIDTH 12 0
BBX 9 17 2 0
BITMAP
6000
6000
0000
C000
C000
C000
C000
DC00
E700
C300
C180
C180
C180
C180
C300
E700
DC00
ENDCHAR
STARTCHAR uni1E04
ENCODING 7684
SWIDTH 575 0
DWIDTH 11 0
BBX 8 16 2 -3
BITMAP
FE
C7
C3
C3
C3
C6
FC
C6
C3
C3
C3
C7
FE
00
18
18
ENDCHAR
STARTCHAR uni1E05
ENCODING 7685
SWIDTH 630 0
DWIDTH 12 0
BBX 9 17 2 -3
BITMAP
C000
C000
C000
C000
DC00
E700
C300
C180
C180
C180
C180
C300
E700
DC00
0000
1800
1800
ENDCHAR
STARTCHAR uni1E06
ENCODING 7686
SWIDTH 575 0
DWIDTH 11 0
BBX 8 16 2 -3
BITMAP
FE
C7
C3
C3
C3
C6
FC
C6
C3
C3
C3
C7
FE
00
7C
7C
ENDCHAR
STARTCHAR uni1E07
ENCODING 7687
SWIDTH 630 0
DWIDTH 12 0
BBX 9 17 2 -3
BITMAP
C000
C000
C000
C000
DC00
E700
C300
C180
C180
C180
C180
C300
E700
DC00
0000
3E00
3E00
ENDCHAR
STARTCHAR uni1E08
ENCODING 7688
SWIDTH 692 0
DWIDTH 13 0
BBX 11 19 1 -3
BITMAP
0700
0C00
0000
0FC0
38E0
6000
6000
C000
C000
C000
C000
C000
6000
7000
38E0
0FC0
0C00
0600
1C00
ENDCHAR
STARTCHAR uni1E09
ENCODING 7689
SWIDTH 518 0
DWIDTH 10 0
BBX 8 16 1 -3
BITMAP
1C
30
00
1E
73
60
C0
C0
C0
C0
60
73
1E
18
0C
38
ENDCHAR
STARTCHAR uni1E0A
ENCODING 7690
SWIDTH 749 0
DWIDTH 14 0
BBX 11 16 2 0
BITMAP
0C00
0C00
0000
FF00
C1C0
C0C0
C060
C060
C060
C060
C060
C060
C0C0
C0C0
C380
FE00
ENDCHAR
STARTCHAR uni1E0B
ENCODING 7691
SWIDTH 630 0
DWIDTH 12 0
BBX 9 17 1 0
BITMAP
0300
0300
0000
0180
0180
0180
0180
1D80
7380
6180
C180
C180
C180
C180
6180
7380
1D80
ENDCHAR
STARTCHAR uni1E0C
ENCODING 7692
SWIDTH 749 0
DWIDTH 14 0
BBX 11 16 2 -3
BITMAP
FF00
C1C0
C0C0
C060
C060
C060
C060
C060
C060
C0C0
C0C0
C380
FE00
0000
0C00
0C00
ENDCHAR
STARTCHAR uni1E0D
ENCODING 7693
SWIDTH 630 0
DWIDTH 12 0
BBX 9 17 1 -3
BITMAP
0180
0180
0180
0180
1D80
7380
6180
C180
C180
C180
C180
6180
7380
1D80
0000
0C00
0C00
ENDCHAR
STARTCHAR uni1E0E
ENCODING 7694
SWIDTH 749 0
DWIDTH 14 0
BBX 11 16 2 -3
BITMAP
FF00
C1C0
C0C0
C060
C060
C060
C060
C060
C060
C0C0
C0C0
C380
FE00
0000
3E00
3E00
ENDCHAR
STARTCHAR uni1E0F
ENCODING 7695
SWIDTH 630 0
DWIDTH 12 0
BBX 9 17 1 -3
BITMAP
0180
0180
0180
0180
1D80
7380
6180
C180
C180
C180
C180
6180
7380
1D80
0000
3E00
3E00
ENDCHAR
STARTCHAR uni1E10
ENCODING 7696
SWIDTH 749 0
DWIDTH 14 0
BBX 11 16 2 -3
BITMAP
FF00
C1C0
C0C0
C060
C060
C060
C060
C060
C060
C0C0
C0C0
C380
FE00
0C00
0600
1C00
ENDCHAR
STARTCHAR uni1E11
ENCODING 7697
SWIDTH 630 0
DWIDTH 12 0
BBX 9 17 1 -3
BITMAP
0180
0180
0180
0180
1D80
7380
6180
C180
C180
C180
C180
6180
7380
1D80
0C00
0600
1C00
ENDCHAR
STARTCHAR uni1E12
ENCODING 7698
SWIDTH 749 0
DWIDTH 14 0
BBX 11 16 2 -3
BITMAP
FF00
C1C0
C0C0
C060
C060
C060
C060
C060
C060
C0C0
C0C0
C380
FE00
0000
1C00
3600
ENDCHAR
STARTCHAR uni1E13
ENCODING 7699
SWIDTH 630 0
DWIDTH 12 0
BBX 9 17 1 -3
BITMAP
0180
0180
0180
0180
1D80
7380
6180
C180
C180
C180
C180
6180
7380
1D80
0000
1C00
3600
ENDCHAR
STARTCHAR uni1E14
ENCODING 7700
SWIDTH 542 0
DWIDTH 10 0
BBX 7 19 2 0
BITMAP
E0
30
00
F8
F8
00
FE
C0
C0
C0
C0
C0
FC
C0
C0
C0
C0
C0
FE
ENDCHAR
STARTCHAR uni1E15
ENCODING 7701
SWIDTH 557 0
DWIDTH 10 0
BBX 8 16 1 0
BITMAP
38
0C
00
3E
3E
00
3C
66
C3
C3
FF
C0
C0
E0
73
3E
ENDCHAR
STARTCHAR uni1E16
ENCODING 7702
SWIDTH 542 0
DWIDTH 10 0
BBX 7 19 2 0
BITMAP
1C
30
00
F8
F8
00
FE
C0
C0
C0
C0
C0
FC
C0
C0
C0
C0
C0
FE
ENDCHAR
STARTCHAR uni1E17
ENCODING 7703
SWIDTH 557 0
DWIDTH 10 0
BBX 8 16 1 0
BITMAP
0E
18
00
3E
3E
00
3C
66
C3
C3
FF
C0
C0
E0
73
3E
ENDCHAR
STARTCHAR uni1E18
ENCODING 7704
SWIDTH 542 0
DWIDTH 10 0
BBX 7 16 2 -3
BITMAP
FE
C0
C0
C0
C0
C0
FC
C0
C0
C0
C0
C0
FE
00
70
D8
ENDCHAR
STARTCHAR uni1E19
ENCODING 7705
SWIDTH 557 0
DWIDTH 10 0
BBX 8 13 1 -3
BITMAP
3C
66
C3
C3
FF
C0
C0
E0
73
3E
00
38
6C
ENDCHAR
STARTCHAR uni1E1A
ENCODING 7706
SWIDTH 542 0
DWIDTH 10 0
BBX 7 16 2 -3
BITMAP
FE
C0
C0
C0
C0
C0
FC
C0
C0
C0
C0
C0
FE
00
74
B8
ENDCHAR
STARTCHAR uni1E1B
ENCODING 7707
SWIDTH 557 0
DWIDTH 10 0
BBX 8 13 1 -3
BITMAP
3C
66
C3
C3
FF
C0
C0
E0
73
3E
00
3A
5C
ENDCHAR
STARTCHAR uni1E1C
ENCODING 7708
SWIDTH 542 0
DWIDTH 10 0
BBX 7 20 2 -3
BITMAP
88
F8
70
00
FE
C0
C0
C0
C0
C0
FC
C0
C0
C0
C0
C0
FE
30
18
70
ENDCHAR
STARTCHAR uni1E1D
ENCODING 7709
SWIDTH 557 0
DWIDTH 10 0
BBX 8 17 1 -3
BITMAP
22
3E
1C
00
3C
66
C3
C3
FF
C0
C0
E0
73
3E
18
0C
38
ENDCHAR
STARTCHAR uni1E1E
ENCODING 7710
SWIDTH 536 0
DWIDTH 10 0
BBX 7 16 2 0
BITMAP
30
30
00
FE
C0
C0
C0
C0
C0
FC
C0
C0
C0
C0
C0
C0
ENDCHAR
STARTCHAR uni1E1F
ENCODING 7711
SWIDTH 367 0
DWIDTH 7 0
BBX 6 17 1 0
BITMAP
30
30
00
1C
30
60
60
FC
60
60
60
60
60
60
60
60
60
ENDCHAR
STARTCHAR uni1E20
ENCODING 7712
SWIDTH 723 0
DWIDTH 13 0
BBX 11 16 1 0
BITMAP
1F00
1F00
0000
0FC0
38E0
6000
6000
C000
C000
C000
C060
C060
6060
7060
3860
0FE0
ENDCHAR
STARTCHAR uni1E21
ENCODING 7713
SWIDTH 623 0
DWIDTH 12 0
BBX 9 16 1 -3
BITMAP
3E00
3E00
0000
1D80
7380
6180
C180
C180
C180
C180
6380
3D80
0180
0180
6300
3E00
ENDCHAR
STARTCHAR uni1E22
ENCODING 7714
SWIDTH 735 0
DWIDTH 14 0
BBX 10 16 2 0
BITMAP
0C00
0C00
0000
C0C0
C0C0
C0C0
C0C0
C0C0
C0C0
FFC0
C0C0
C0C0
C0C0
C0C0
C0C0
C0C0
ENDCHAR
STARTCHAR uni1E23
ENCODING 7715
SWIDTH 620 0
DWIDTH 12 0
BBX 8 17 2 0
BITMAP
60
60
00
C0
C0
C0
C0
DE
E7
C3
C3
C3
C3
C3
C3
C3
C3
ENDCHAR
STARTCHAR uni1E24
ENCODING 7716
SWIDTH 735 0
DWIDTH 14 0
BBX 10 16 2 -3
BITMAP
C0C0
C0C0
C0C0
C0C0
C0C0
C0C0
FFC0
C0C0
C0C0
C0C0
C0C0
C0C0
C0C0
0000
0C00
0C00
ENDCHAR
STARTCHAR uni1E25
ENCODING 7717
SWIDTH 620 0
DWIDTH 12 0
BBX 8 17 2 -3
BITMAP
C0
C0
C0
C0
DE
E7
C3
C3
C3
C3
C3
C3
C3
C3
00
18
18
ENDCHAR
STARTCHAR uni1E26
ENCODING 7718
SWIDTH 735 0
DWIDTH 14 0
BBX 10 16 2 0
BITMAP
3300
3300
0000
C0C0
C0C0
C0C0
C0C0
C0C0
C0C0
FFC0
C0C0
C0C0
C0C0
C0C0
C0C0
C0C0
ENDCHAR
STARTCHAR uni1E27
ENCODING 7719
SWIDTH 620 0
DWIDTH 12 0
BBX 9 17 1 0
BITMAP
CC00
CC00
0000
6000
6000
6000
6000
6F00
7380
6180
6180
6180
6180
6180
6180
6180
6180
ENDCHAR
STARTCHAR uni1E28
ENCODING 7720
SWIDTH 735 0
DWIDTH 14 0
BBX 10 16 2 -3
BITMAP
C0C0
C0C0
C0C0
C0C0
C0C0
C0C0
FFC0
C0C0
C0C0
C0C0
C0C0
C0C0
C0C0
0C00
0600
1C00
ENDCHAR
STARTCHAR uni1E29
ENCODING 7721
SWIDTH 620 0
DWIDTH 12 0
BBX 8 17 2 -3
BITMAP
C0
C0
C0
C0
DE
E7
C3
C3
C3
C3
C3
C3
C3
C3
18
0C
38
ENDCHAR
STARTCHAR uni1E2A
ENCODING 7722
SWIDTH 735 0
DWIDTH 14 0
BBX 10 17 2 -4
BITMAP
C0C0
C0C0
C0C0
C0C0
C0C0
C0C0
FFC0
C0C0
C0C0
C0C0
C0C0
C0C0
C0C0
0000
1100
1F00
0E00
ENDCHAR
STARTCHAR uni1E2B
ENCODING 7723
SWIDTH 620 0
DWIDTH 12 0
BBX 8 18 2 -4
BITMAP
C0
C0
C0
C0
DE
E7
C3
C3
C3
C3
C3
C3
C3
C3
00
22
3E
1C
ENDCHAR
STARTCHAR uni1E2C
ENCODING 7724
SWIDTH 288 0
DWIDTH 6 0
BBX 6 16 0 -3
BITMAP
30
30
30
30
30
30
30
30
30
30
30
30
30
00
74
B8
ENDCHAR
STARTCHAR uni1E2D
ENCODING 7725
SWIDTH 289 0
DWIDTH 6 0
BBX 6 17 0 -3
BITMAP
30
30
00
00
30
30
30
30
30
30
30
30
30
30
00
74
B8
ENDCHAR
STARTCHAR uni1E2E
ENCODING 7726
SWIDTH 288 0
DWIDTH 6 0
BBX 6 19 0 0
BITMAP
1C
30
00
CC
CC
00
30
30
30
30
30
30
30
30
30
30
30
30
30
ENDCHAR
STARTCHAR uni1E2F
ENCODING 7727
SWIDTH 289 0
DWIDTH 6 0
BBX 6 16 0 0
BITMAP
1C
30
00
CC
CC
00
30
30
30
30
30
30
30
30
30
30
ENDCHAR
STARTCHAR uni1E30
ENCODING 7728
SWIDTH 653 0
DWIDTH 12 0
BBX 10 16 2 0
BITMAP
0E00
1800
0000
C180
C300
C600
CC00
D800
F000
F000
D800
CC00
C600
C300
C180
C0C0
ENDCHAR
STARTCHAR uni1E31
ENCODING 7729
SWIDTH 585 0
DWIDTH 11 0
BBX 9 17 2 0
BITMAP
3800
6000
0000
C000
C000
C000
C000
C300
C600
CC00
D800
F000
D800
CC00
C600
C300
C180
ENDCHAR
STARTCHAR uni1E32
ENCODING 7730
SWIDTH 653 0
DWIDTH 12 0
BBX 10 16 2 -3
BITMAP
C180
C300
C600
CC00
D800
F000
F000
D800
CC00
C600
C300
C180
C0C0
0000
0C00
0C00
ENDCHAR
STARTCHAR uni1E33
ENCODING 7731
SWIDTH 585 0
DWIDTH 11 0
BBX 9 17 2 -3
BITMAP
C000
C000
C000
C000
C300
C600
CC00
D800
F000
D800
CC00
C600
C300
C180
0000
1800
1800
ENDCHAR
STARTCHAR uni1E34
ENCODING 7732
SWIDTH 653 0
DWIDTH 12 0
BBX 10 16 2 -3
BITMAP
C180
C300
C600
CC00
D800
F000
F000
D800
CC00
C600
C300
C180
C0C0
0000
3E00
3E00
ENDCHAR
STARTCHAR uni1E35
ENCODING 7733
SWIDTH 585 0
DWIDTH 11 0
BBX 9 17 2 -3
BITMAP
C000
C000
C000
C000
C300
C600
CC00
D800
F000
D800
CC00
C600
C300
C180
0000
3E00
3E00
ENDCHAR
STARTCHAR uni1E36
ENCODING 7734
SWIDTH 533 0
DWIDTH 10 0
BBX 7 16 2 -3
BITMAP
C0
C0
C0
C0
C0
C0
C0
C0
C0
C0
C0
C0
FE
00
30
30
ENDCHAR
STARTCHAR uni1E37
ENCODING 7735
SWIDTH 289 0
DWIDTH 6 0
BBX 2 17 2 -3
BITMAP
C0
C0
C0
C0
C0
C0
C0
C0
C0
C0
C0
C0
C0
C0
00
C0
C0
ENDCHAR
STARTCHAR uni1E38
ENCODING 7736
SWIDTH 533 0
DWIDTH 10 0
BBX 8 19 1 -3
BITMAP
F8
F8
00
60
60
60
60
60
60
60
60
60
60
60
60
7F
00
18
18
ENDCHAR
STARTCHAR uni1E39
ENCODING 7737
SWIDTH 289 0
DWIDTH 6 0
BBX 5 20 1 -3
BITMAP
F8
F8
00
60
60
60
60
60
60
60
60
60
60
60
60
60
60
00
60
60
ENDCHAR
STARTCHAR uni1E3A
ENCODING 7738
SWIDTH 533 0
DWIDTH 10 0
BBX 7 16 2 -3
BITMAP
C0
C0
C0
C0
C0
C0
C0
C0
C0
C0
C0
C0
FE
00
F8
F8
ENDCHAR
STARTCHAR uni1E3B
ENCODING 7739
SWIDTH 289 0
DWIDTH 6 0
BBX 5 17 1 -3
BITMAP
60
60
60
60
60
60
60
60
60
60
60
60
60
60
00
F8
F8
ENDCHAR
STARTCHAR uni1E3C
ENCODING 7740
SWIDTH 533 0
DWIDTH 10 0
BBX 7 16 2 -3
BITMAP
C0
C0
C0
C0
C0
C0
C0
C0
C0
C0
C0
C0
FE
00
70
D8
ENDCHAR
STARTCHAR uni1E3D
ENCODING 7741
SWIDTH 289 0
DWIDTH 6 0
BBX 5 17 1 -3
BITMAP
60
60
60
60
60
60
60
60
60
60
60
60
60
60
00
70
D8
ENDCHAR
STARTCHAR uni1E3E
ENCODING 7742
SWIDTH 861 0
DWIDTH 16 0
BBX 12 16 2 0
BITMAP
0380
0600
0000
E070
E070
B0B0
B0B0
B0B0
9930
9930
9930
8E30
8E30
8430
8430
8030
ENDCHAR
STARTCHAR uni1E3F
ENCODING 7743
SWIDTH 934 0
DWIDTH 18 0
BBX 14 13 2 0
BITMAP
01C0
0300
0000
DE78
E79C
C30C
C30C
C30C
C30C
C30C
C30C
C30C
C30C
ENDCHAR
STARTCHAR uni1E40
ENCODING 7744
SWIDTH 861 0
DWIDTH 16 0
BBX 12 16 2 0
BITMAP
0600
0600
0000
E070
E070
B0B0
B0B0
B0B0
9930
9930
9930
8E30
8E30
8430
8430
8030
ENDCHAR
STARTCHAR uni1E41
ENCODING 7745
SWIDTH 934 0
DWIDTH 18 0
BBX 14 13 2 0
BITMAP
0300
0300
0000
DE78
E79C
C30C
C30C
C30C
C30C
C30C
C30C
C30C
C30C
ENDCHAR
STARTCHAR uni1E42
ENCODING 7746
SWIDTH 861 0
DWIDTH 16 0
BBX 12 16 2 -3
BITMAP
E070
E070
B0B0
B0B0
B0B0
9930
9930
9930
8E30
8E30
8430
8430
8030
0000
0300
0300
ENDCHAR
STARTCHAR uni1E43
ENCODING 7747
SWIDTH 934 0
DWIDTH 18 0
BBX 14 13 2 -3
BITMAP
DE78
E79C
C30C
C30C
C30C
C30C
C30C
C30C
C30C
C30C
0000
0300
0300
ENDCHAR
STARTCHAR uni1E44
ENCODING 7748
SWIDTH 741 0
DWIDTH 14 0
BBX 10 16 2 0
BITMAP
1800
1800
0000
C040
E040
F040
B040
9840
9C40
8C40
8640
8740
8340
81C0
81C0
80C0
ENDCHAR
STARTCHAR uni1E45
ENCODING 7749
SWIDTH 620 0
DWIDTH 12 0
BBX 8 13 2 0
BITMAP
18
18
00
DE
E7
C3
C3
C3
C3
C3
C3
C3
C3
ENDCHAR
STARTCHAR uni1E46
ENCODING 7750
SWIDTH 741 0
DWIDTH 14 0
BBX 10 16 2 -3
BITMAP
C040
E040
F040
B040
9840
9C40
8C40
8640
8740
8340
81C0
81C0
80C0
0000
0600
0600
ENDCHAR
STARTCHAR uni1E47
ENCODING 7751
SWIDTH 620 0
DWIDTH 12 0
BBX 8 13 2 -3
BITMAP
DE
E7
C3
C3
C3
C3
C3
C3
C3
C3
00
18
18
ENDCHAR
STARTCHAR uni1E48
ENCODING 7752
SWIDTH 741 0
DWIDTH 14 0
BBX 10 16 2 -3
BITMAP
C040
E040
F040
B040
9840
9C40
8C40
8640
8740
8340
81C0
81C0
80C0
0000
1F00
1F00
ENDCHAR
STARTCHAR uni1E49
ENCODING 7753
SWIDTH 620 0
DWIDTH 12 0
BBX 8 13 2 -3
BITMAP
DE
E7
C3
C3
C3
C3
C3
C3
C3
C3
00
3E
3E
ENDCHAR
STARTCHAR uni1E4A
ENCODING 7754
SWIDTH 741 0
DWIDTH 14 0
BBX 10 16 2 -3
BITMAP
C040
E040
F040
B040
9840
9C40
8C40
8640
8740
8340
81C0
81C0
80C0
0000
0E00
1B00
ENDCHAR
STARTCHAR uni1E4B
ENCODING 7755
SWIDTH 620 0
DWIDTH 12 0
BBX 8 13 2 -3
BITMAP
DE
E7
C3
C3
C3
C3
C3
C3
C3
C3
00
1C
36
ENDCHAR
STARTCHAR uni1E4C
ENCODING 7756
SWIDTH 777 0
DWIDTH 14 0
BBX 12 19 1 0
BITMAP
0380
0600
0000
0E80
1700
0000
0F00
39C0
6060
6060
C030
C030
C030
C030
C030
6060
6060
39C0
0F00
ENDCHAR
STARTCHAR uni1E4D
ENCODING 7757
SWIDTH 614 0
DWIDTH 11 0
BBX 9 16 1 0
BITMAP
0E00
1800
0000
1D00
2E00
0000
1C00
7700
6300
C180
C180
C180
C180
6300
7700
1C00
ENDCHAR
STARTCHAR uni1E4E
ENCODING 7758
SWIDTH 777 0
DWIDTH 14 0
BBX 12 19 1 0
BITMAP
1980
1980
0000
0E80
1700
0000
0F00
39C0
6060
6060
C030
C030
C030
C030
C030
6060
6060
39C0
0F00
ENDCHAR
STARTCHAR uni1E4F
ENCODING 7759
SWIDTH 614 0
DWIDTH 11 0
BBX 9 16 1 0
BITMAP
3300
3300
0000
1D00
2E00
0000
1C00
7700
6300
C180
C180
C180
C180
6300
7700
1C00
ENDCHAR
STARTCHAR uni1E50
ENCODING 7760
SWIDTH 777 0
DWIDTH 14 0
BBX 12 19 1 0
BITMAP
0E00
0300
0000
0F80
0F80
0000
0F00
39C0
6060
6060
C030
C030
C030
C030
C030
6060
6060
39C0
0F00
ENDCHAR
STARTCHAR uni1E51
ENCODING 7761
SWIDTH 614 0
DWIDTH 11 0
BBX 9 16 1 0
BITMAP
3800
0C00
0000
3E00
3E00
0000
1C00
7700
6300
C180
C180
C180
C180
6300
7700
1C00
ENDCHAR
STARTCHAR uni1E52
ENCODING 7762
SWIDTH 777 0
DWIDTH 14 0
BBX 12 19 1 0
BITMAP
0380
0600
0000
0F80
0F80
0000
0F00
39C0
6060
6060
C030
C030
C030
C030
C030
6060
6060
39C0
0F00
ENDCHAR
STARTCHAR uni1E53
ENCODING 7763
SWIDTH 614 0
DWIDTH 11 0
BBX 9 16 1 0
BITMAP
0E00
1800
0000
3E00
3E00
0000
1C00
7700
6300
C180
C180
C180
C180
6300
7700
1C00
ENDCHAR
STARTCHAR uni1E54
ENCODING 7764
SWIDTH 553 0
DWIDTH 11 0
BBX 8 16 2 0
BITMAP
0E
18
00
FE
C7
C3
C3
C3
C3
C6
F8
C0
C0
C0
C0
C0
ENDCHAR
STARTCHAR uni1E55
ENCODING 7765
SWIDTH 630 0
DWIDTH 12 0
BBX 9 16 2 -3
BITMAP
0E00
1800
0000
DC00
E700
C300
C180
C180
C180
C180
C300
E700
DC00
C000
C000
C000
ENDCHAR
STARTCHAR uni1E56
ENCODING 7766
SWIDTH 553 0
DWIDTH 11 0
BBX 8 16 2 0
BITMAP
18
18
00
FE
C7
C3
C3
C3
C3
C6
F8
C0
C0
C0
C0
C0
ENDCHAR
STARTCHAR uni1E57
ENCODING 7767
SWIDTH 630 0
DWIDTH 12 0
BBX 9 16 2 -3
BITMAP
1800
1800
0000
DC00
E700
C300
C180
C180
C180
C180
C300
E700
DC00
C000
C000
C000
ENDCHAR
STARTCHAR uni1E58
ENCODING 7768
SWIDTH 633 0
DWIDTH 12 0
BBX 9 16 2 0
BITMAP
1800
1800
0000
FE00
C700
C300
C300
C300
C600
F800
CC00
C600
C600
C300
C180
C180
ENDCHAR
STARTCHAR uni1E59
ENCODING 7769
SWIDTH 409 0
DWIDTH 8 0
BBX 6 13 2 0
BITMAP
30
30
00
CC
DC
E0
C0
C0
C0
C0
C0
C0
C0
ENDCHAR
STARTCHAR uni1E5A
ENCODING 7770
SWIDTH 633 0
DWIDTH 12 0
BBX 9 16 2 -3
BITMAP
FE00
C700
C300
C300
C300
C600
F800
CC00
C600
C600
C300
C180
C180
0000
1800
1800
ENDCHAR
STARTCHAR uni1E5B
ENCODING 7771
SWIDTH 409 0
DWIDTH 8 0
BBX 6 13 2 -3
BITMAP
CC
DC
E0
C0
C0
C0
C0
C0
C0
C0
00
60
60
ENDCHAR
STARTCHAR uni1E5C
ENCODING 7772
SWIDTH 633 0
DWIDTH 12 0
BBX 9 19 2 -3
BITMAP
3E00
3E00
0000
FE00
C700
C300
C300
C300
C600
F800
CC00
C600
C600
C300
C180
C180
0000
1800
1800
ENDCHAR
STARTCHAR uni1E5D
ENCODING 7773
SWIDTH 409 0
DWIDTH 8 0
BBX 6 16 2 -3
BITMAP
F8
F8
00
CC
DC
E0
C0
C0
C0
C0
C0
C0
C0
00
60
60
ENDCHAR
STARTCHAR uni1E5E
ENCODING 7774
SWIDTH 633 0
DWIDTH 12 0
BBX 9 16 2 -3
BITMAP
FE00
C700
C300
C300
C300
C600
F800
CC00
C600
C600
C300
C180
C180
0000
3E00
3E00
ENDCHAR
STARTCHAR uni1E5F
ENCODING 7775
SWIDTH 409 0
DWIDTH 8 0
BBX 7 13 1 -3
BITMAP
66
6E
70
60
60
60
60
60
60
60
00
F8
F8
ENDCHAR
STARTCHAR uni1E60
ENCODING 7776
SWIDTH 539 0
DWIDTH 10 0
BBX 8 16 1 0
BITMAP
18
18
00
3E
67
C0
C0
E0
78
1E
07
03
03
03
E6
7C
ENDCHAR
STARTCHAR uni1E61
ENCODING 7777
SWIDTH 510 0
DWIDTH 9 0
BBX 7 13 1 0
BITMAP
30
30
00
7C
C6
C0
E0
70
1C
0E
06
C6
7C
ENDCHAR
STARTCHAR uni1E62
ENCODING 7778
SWIDTH 539 0
DWIDTH 10 0
BBX 8 16 1 -3
BITMAP
3E
67
C0
C0
E0
78
1E
07
03
03
03
E6
7C
00
18
18
ENDCHAR
STARTCHAR uni1E63
ENCODING 7779
SWIDTH 510 0
DWIDTH 9 0
BBX 7 13 1 -3
BITMAP
7C
C6
C0
E0
70
1C
0E
06
C6
7C
00
18
18
ENDCHAR
STARTCHAR uni1E64
ENCODING 7780
SWIDTH 539 0
DWIDTH 10 0
BBX 8 19 1 0
BITMAP
18
18
00
1C
30
00
3E
67
C0
C0
E0
78
1E
07
03
03
03
E6
7C
ENDCHAR
STARTCHAR uni1E65
ENCODING 7781
SWIDTH 510 0
DWIDTH 9 0
BBX 7 16 1 0
BITMAP
18
18
00
1C
30
00
7C
C6
C0
E0
70
1C
0E
06
C6
7C
ENDCHAR
STARTCHAR uni1E66
ENCODING 7782
SWIDTH 539 0
DWIDTH 10 0
BBX 8 19 1 0
BITMAP
18
18
00
36
1C
00
3E
67
C0
C0
E0
78
1E
07
03
03
03
E6
7C
ENDCHAR
STARTCHAR uni1E67
ENCODING 7783
SWIDTH 510 0
DWIDTH 9 0
BBX 7 16 1 0
BITMAP
18
18
00
6C
38
00
7C
C6
C0
E0
70
1C
0E
06
C6
7C
ENDCHAR
STARTCHAR uni1E68
ENCODING 7784
SWIDTH 539 0
DWIDTH 10 0
BBX 8 19 1 -3
BITMAP
30
30
00
3E
67
C0
C0
E0
78
1E
07
03
03
03
E6
7C
00
18
18
ENDCHAR
STARTCHAR uni1E69
ENCODING 7785
SWIDTH 510 0
DWIDTH 9 0
BBX 7 16 1 -3
BITMAP
30
30
00
7C
C6
C0
E0
70
1C
0E
06
C6
7C
00
18
18
ENDCHAR
STARTCHAR uni1E6A
ENCODING 7786
SWIDTH 633 0
DWIDTH 12 0
BBX 12 16 0 0
BITMAP
0600
0600
0000
FFF0
0600
0600
0600
0600
0600
0600
0600
0600
0600
0600
0600
0600
ENDCHAR
STARTCHAR uni1E6B
ENCODING 7787
SWIDTH 374 0
DWIDTH 7 0
BBX 5 15 1 0
BITMAP
60
60
00
60
60
F8
60
60
60
60
60
60
60
60
38
ENDCHAR
STARTCHAR uni1E6C
ENCODING 7788
SWIDTH 633 0
DWIDTH 12 0
BBX 12 16 0 -3
BITMAP
FFF0
0600
0600
0600
0600
0600
0600
0600
0600
0600
0600
0600
0600
0000
0600
0600
ENDCHAR
STARTCHAR uni1E6D
ENCODING 7789
SWIDTH 374 0
DWIDTH 7 0
BBX 5 15 1 -3
BITMAP
60
60
F8
60
60
60
60
60
60
60
60
38
00
30
30
ENDCHAR
STARTCHAR uni1E6E
ENCODING 7790
SWIDTH 633 0
DWIDTH 12 0
BBX 12 16 0 -3
BITMAP
FFF0
0600
0600
0600
0600
0600
0600
0600
0600
0600
0600
0600
0600
0000
0F80
0F80
ENDCHAR
STARTCHAR uni1E6F
ENCODING 7791
SWIDTH 374 0
DWIDTH 7 0
BBX 5 15 1 -3
BITMAP
60
60
F8
60
60
60
60
60
60
60
60
38
00
F8
F8
ENDCHAR
STARTCHAR uni1E70
ENCODING 7792
SWIDTH 633 0
DWIDTH 12 0
BBX 12 16 0 -3
BITMAP
FFF0
0600
0600
0600
0600
0600
0600
0600
0600
0600
0600
0600
0600
0000
0700
0D80
ENDCHAR
STARTCHAR uni1E71
ENCODING 7793
SWIDTH 374 0
DWIDTH 7 0
BBX 5 15 1 -3
BITMAP
60
60
F8
60
60
60
60
60
60
60
60
38
00
70
D8
ENDCHAR
STARTCHAR uni1E72
ENCODING 7794
SWIDTH 693 0
DWIDTH 13 0
BBX 9 16 2 -3
BITMAP
C180
C180
C180
C180
C180
C180
C180
C180
C180
C180
6300
7700
1C00
0000
3300
3300
ENDCHAR
STARTCHAR uni1E73
ENCODING 7795
SWIDTH 620 0
DWIDTH 12 0
BBX 8 13 2 -3
BITMAP
C3
C3
C3
C3
C3
C3
C3
C3
E7
7B
00
66
66
ENDCHAR
STARTCHAR uni1E74
ENCODING 7796
SWIDTH 693 0
DWIDTH 13 0
BBX 9 16 2 -3
BITMAP
C180
C180
C180
C180
C180
C180
C180
C180
C180
C180
6300
7700
1C00
0000
3A00
5C00
ENDCHAR
STARTCHAR uni1E75
ENCODING 7797
SWIDTH 620 0
DWIDTH 12 0
BBX 8 13 2 -3
BITMAP
C3
C3
C3
C3
C3
C3
C3
C3
E7
7B
00
3A
5C
ENDCHAR
STARTCHAR uni1E76
ENCODING 7798
SWIDTH 693 0
DWIDTH 13 0
BBX 9 16 2 -3
BITMAP
C180
C180
C180
C180
C180
C180
C180
C180
C180
C180
6300
7700
1C00
0000
1C00
3600
ENDCHAR
STARTCHAR uni1E77
ENCODING 7799
SWIDTH 620 0
DWIDTH 12 0
BBX 8 13 2 -3
BITMAP
C3
C3
C3
C3
C3
C3
C3
C3
E7
7B
00
1C
36
ENDCHAR
STARTCHAR uni1E78
ENCODING 7800
SWIDTH 693 0
DWIDTH 13 0
BBX 9 19 2 0
BITMAP
0E00
1800
0000
1D00
2E00
0000
C180
C180
C180
C180
C180
C180
C180
C180
C180
C180
6300
7700
1C00
ENDCHAR
STARTCHAR uni1E79
ENCODING 7801
SWIDTH 620 0
DWIDTH 12 0
BBX 8 16 2 0
BITMAP
0E
18
00
3A
5C
00
C3
C3
C3
C3
C3
C3
C3
C3
E7
7B
ENDCHAR
STARTCHAR uni1E7A
ENCODING 7802
SWIDTH 693 0
DWIDTH 13 0
BBX 9 19 2 0
BITMAP
3300
3300
0000
3E00
3E00
0000
C180
C180
C180
C180
C180
C180
C180
C180
C180
C180
6300
7700
1C00
ENDCHAR
STARTCHAR uni1E7B
ENCODING 7803
SWIDTH 620 0
DWIDTH 12 0
BBX 8 16 2 0
BITMAP
66
66
00
3E
3E
00
C3
C3
C3
C3
C3
C3
C3
C3
E7
7B
ENDCHAR
STARTCHAR uni1E7C
ENCODING 7804
SWIDTH 654 0
DWIDTH 12 0
BBX 10 16 1 0
BITMAP
1D00
2E00
0000
C0C0
C0C0
C0C0
6080
6180
6180
3100
3300
3300
1A00
1E00
0C00
0C00
ENDCHAR
STARTCHAR uni1E7D
ENCODING 7805
SWIDTH 572 0
DWIDTH 10 0
BBX 8 13 1 0
BITMAP
3A
5C
00
C3
C3
C3
62
66
66
34
34
18
18
ENDCHAR
STARTCHAR uni1E7E
ENCODING 7806
SWIDTH 654 0
DWIDTH 12 0
BBX 10 16 1 -3
BITMAP
C0C0
C0C0
C0C0
6080
6180
6180
3100
3300
3300
1A00
1E00
0C00
0C00
0000
0C00
0C00
ENDCHAR
STARTCHAR uni1E7F
ENCODING 7807
SWIDTH 572 0
DWIDTH 10 0
BBX 8 13 1 -3
BITMAP
C3
C3
C3
62
66
66
34
34
18
18
00
18
18
ENDCHAR
STARTCHAR Wgrave
ENCODING 7808
SWIDTH 855 0
DWIDTH 16 0
BBX 14 16 1 0
BITMAP
0E00
0300
0000
C00C
C30C
C30C
C78C
C598
6598
6CD8
68D0
68D0
38F0
3060
3060
3060
ENDCHAR
STARTCHAR wgrave
ENCODING 7809
SWIDTH 840 0
DWIDTH 16 0
BBX 14 13 1 0
BITMAP
0E00
0300
0000
C00C
C30C
C30C
6318
6598
6590
68D0
38F0
3060
3060
ENDCHAR
STARTCHAR Wacute
ENCODING 7810
SWIDTH 855 0
DWIDTH 16 0
BBX 14 16 1 0
BITMAP
01C0
0300
0000
C00C
C30C
C30C
C78C
C598
6598
6CD8
68D0
68D0
38F0
3060
3060
3060
ENDCHAR
STARTCHAR wacute
ENCODING 7811
SWIDTH 840 0
DWIDTH 16 0
BBX 14 13 1 0
BITMAP
01C0
0300
0000
C00C
C30C
C30C
6318
6598
6590
68D0
38F0
3060
3060
ENDCHAR
STARTCHAR Wdieresis
ENCODING 7812
SWIDTH 855 0
DWIDTH 16 0
BBX 14 16 1 0
BITMAP
0CC0
0CC0
0000
C00C
C30C
C30C
C78C
C598
6598
6CD8
68D0
68D0
38F0
3060
3060
3060
ENDCHAR
STARTCHAR wdieresis
ENCODING 7813
SWIDTH 840 0
DWIDTH 16 0
BBX 14 13 1 0
BITMAP
0CC0
0CC0
0000
C00C
C30C
C30C
6318
6598
6590
68D0
38F0
3060
3060
ENDCHAR
STARTCHAR uni1E86
ENCODING 7814
SWIDTH 855 0
DWIDTH 16 0
BBX 14 16 1 0
BITMAP
0300
0300
0000
C00C
C30C
C30C
C78C
C598
6598
6CD8
68D0
68D0
38F0
3060
3060
3060
ENDCHAR
STARTCHAR uni1E87
ENCODING 7815
SWIDTH 840 0
DWIDTH 16 0
BBX 14 13 1 0
BITMAP
0300
0300
0000
C00C
C30C
C30C
6318
6598
6590
68D0
38F0
3060
3060
ENDCHAR
STARTCHAR uni1E88
ENCODING 7816
SWIDTH 855 0
DWIDTH 16 0
BBX 14 16 1 -3
BITMAP
C00C
C30C
C30C
C78C
C598
6598
6CD8
68D0
68D0
38F0
3060
3060
3060
0000
0300
0300
ENDCHAR
STARTCHAR uni1E89
ENCODING 7817
SWIDTH 840 0
DWIDTH 16 0
BBX 14 13 1 -3
BITMAP
C00C
C30C
C30C
6318
6598
6590
68D0
38F0
3060
3060
0000
0300
0300
ENDCHAR
STARTCHAR uni1E8A
ENCODING 7818
SWIDTH 626 0
DWIDTH 11 0
BBX 9 16 1 0
BITMAP
0C00
0C00
0000
C180
C180
6180
6300
3200
1C00
1C00
1C00
2600
6300
C300
C180
C180
ENDCHAR
STARTCHAR uni1E8B
ENCODING 7819
SWIDTH 613 0
DWIDTH 11 0
BBX 8 13 2 0
BITMAP
18
18
00
C3
C3
66
34
38
1C
2C
66
C3
C3
ENDCHAR
STARTCHAR uni1E8C
ENCODING 7820
SWIDTH 626 0
DWIDTH 11 0
BBX 9 16 1 0
BITMAP
3300
3300
0000
C180
C180
6180
6300
3200
1C00
1C00
1C00
2600
6300
C300
C180
C180
ENDCHAR
STARTCHAR uni1E8D
ENCODING 7821
SWIDTH 613 0
DWIDTH 11 0
BBX 8 13 2 0
BITMAP
66
66
00
C3
C3
66
34
38
1C
2C
66
C3
C3
ENDCHAR
STARTCHAR uni1E8E
ENCODING 7822
SWIDTH 623 0
DWIDTH 12 0
BBX 10 16 1 0
BITMAP
0C00
0C00
0000
C0C0
C0C0
6180
3100
3300
1E00
0C00
0C00
0C00
0C00
0C00
0C00
0C00
ENDCHAR
STARTCHAR uni1E8F
ENCODING 7823
SWIDTH 568 0
DWIDTH 10 0
BBX 8 16 1 -3
BITMAP
18
18
00
C3
C3
C3
62
66
66
34
3C
18
18
10
30
30
ENDCHAR
STARTCHAR uni1E90
ENCODING 7824
SWIDTH 605 0
DWIDTH 11 0
BBX 9 16 1 0
BITMAP
1C00
3600
0000
FF80
FF80
0180
0300
0600
0C00
1C00
1800
3000
6000
C000
FF80
FF80
ENDCHAR
STARTCHAR uni1E91
ENCODING 7825
SWIDTH 573 0
DWIDTH 10 0
BBX 8 13 1 0
BITMAP
1C
36
00
FF
03
07
0E
1C
38
70
E0
C0
FF
ENDCHAR
STARTCHAR uni1E92
ENCODING 7826
SWIDTH 605 0
DWIDTH 11 0
BBX 9 16 1 -3
BITMAP
FF80
FF80
0180
0300
0600
0C00
1C00
1800
3000
6000
C000
FF80
FF80
0000
1800
1800
ENDCHAR
STARTCHAR uni1E93
ENCODING 7827
SWIDTH 573 0
DWIDTH 10 0
BBX 8 13 1 -3
BITMAP
FF
03
07
0E
1C
38
70
E0
C0
FF
00
30
30
ENDCHAR
STARTCHAR uni1E94
ENCODING 7828
SWIDTH 605 0
DWIDTH 11 0
BBX 9 16 1 -3
BITMAP
FF80
FF80
0180
0300
0600
0C00
1C00
1800
3000
6000
C000
FF80
FF80
0000
3E00
3E00
ENDCHAR
STARTCHAR uni1E95
ENCODING 7829
SWIDTH 573 0
DWIDTH 10 0
BBX 8 13 1 -3
BITMAP
FF
03
07
0E
1C
38
70
E0
C0
FF
00
7C
7C
ENDCHAR
STARTCHAR uni1E96
ENCODING 7830
SWIDTH 620 0
DWIDTH 12 0
BBX 8 17 2 -3
BITMAP
C0
C0
C0
C0
DE
E7
C3
C3
C3
C3
C3
C3
C3
C3
00
3E
3E
ENDCHAR
STARTCHAR uni1E97
ENCODING 7831
SWIDTH 374 0
DWIDTH 7 0
BBX 6 15 0 0
BITMAP
CC
CC
00
30
30
7C
30
30
30
30
30
30
30
30
1C
ENDCHAR
STARTCHAR uni1E98
ENCODING 7832
SWIDTH 840 0
DWIDTH 16 0
BBX 14 14 1 0
BITMAP
0380
04C0
0380
0000
C00C
C30C
C30C
6318
6598
6590
68D0
38F0
3060
3060
ENDCHAR
STARTCHAR uni1E99
ENCODING 7833
SWIDTH 568 0
DWIDTH 10 0
BBX 8 17 1 -3
BITMAP
38
4C
38
00
C3
C3
C3
62
66
66
34
3C
18
18
10
30
30
ENDCHAR
STARTCHAR uni1EA0
ENCODING 7840
SWIDTH 690 0
DWIDTH 13 0
BBX 11 16 1 -3
BITMAP
0600
0600
0F00
0B00
1980
1180
3180
20C0
7FC0
60C0
4060
C060
C060
0000
0600
0600
ENDCHAR
STARTCHAR uni1EA1
ENCODING 7841
SWIDTH 552 0
DWIDTH 10 0
BBX 9 13 1 -3
BITMAP
3E00
6700
0300
0300
3F00
6300
C300
C300
E700
7980
0000
1800
1800
ENDCHAR
STARTCHAR uni1EA4
ENCODING 7844
SWIDTH 690 0
DWIDTH 13 0
BBX 11 19 1 0
BITMAP
0700
0C00
0000
0E00
1B00
0000
0600
0600
0F00
0B00
1980
1180
3180
20C0
7FC0
60C0
4060
C060
C060
ENDCHAR
STARTCHAR uni1EA5
ENCODING 7845
SWIDTH 552 0
DWIDTH 10 0
BBX 9 16 1 0
BITMAP
0E00
1800
0000
1C00
3600
0000
3E00
6700
0300
0300
3F00
6300
C300
C300
E700
7980
ENDCHAR
STARTCHAR uni1EA6
ENCODING 7846
SWIDTH 690 0
DWIDTH 13 0
BBX 11 19 1 0
BITMAP
1C00
0600
0000
0E00
1B00
0000
0600
0600
0F00
0B00
1980
1180
3180
20C0
7FC0
60C0
4060
C060
C060
ENDCHAR
STARTCHAR uni1EA7
ENCODING 7847
SWIDTH 552 0
DWIDTH 10 0
BBX 9 16 1 0
BITMAP
3800
0C00
0000
1C00
3600
0000
3E00
6700
0300
0300
3F00
6300
C300
C300
E700
7980
ENDCHAR
STARTCHAR uni1EAA
ENCODING 7850
SWIDTH 690 0
DWIDTH 13 0
BBX 11 19 1 0
BITMAP
0E80
1700
0000
0E00
1B00
0000
0600
0600
0F00
0B00
1980
1180
3180
20C0
7FC0
60C0
4060
C060
C060
ENDCHAR
STARTCHAR uni1EAB
ENCODING 7851
SWIDTH 552 0
DWIDTH 10 0
BBX 9 16 1 0
BITMAP
1D00
2E00
0000
1C00
3600
0000
3E00
6700
0300
0300
3F00
6300
C300
C300
E700
7980
ENDCHAR
STARTCHAR uni1EAC
ENCODING 7852
SWIDTH 690 0
DWIDTH 13 0
BBX 11 19 1 -3
BITMAP
0E00
1B00
0000
0600
0600
0F00
0B00
1980
1180
3180
20C0
7FC0
60C0
4060
C060
C060
0000
0600
0600
ENDCHAR
STARTCHAR uni1EAD
ENCODING 7853
SWIDTH 552 0
DWIDTH 10 0
BBX 9 16 1 -3
BITMAP
0E00
1B00
0000
3E00
6700
0300
0300
3F00
6300
C300
C300
E700
7980
0000
1800
1800
ENDCHAR
STARTCHAR uni1EAE
ENCODING 7854
SWIDTH 690 0
DWIDTH 13 0
BBX 11 20 1 0
BITMAP
0700
0C00
0000
1100
1F00
0E00
0000
0600
0600
0F00
0B00
1980
1180
3180
20C0
7FC0
60C0
4060
C060
C060
ENDCHAR
STARTCHAR uni1EAF
ENCODING 7855
SWIDTH 552 0
DWIDTH 10 0
BBX 9 17 1 0
BITMAP
0E00
1800
0000
2200
3E00
1C00
0000
3E00
6700
0300
0300
3F00
6300
C300
C300
E700
7980
ENDCHAR
STARTCHAR uni1EB0
ENCODING 7856
SWIDTH 690 0
DWIDTH 13 0
BBX 11 20 1 0
BITMAP
1C00
0600
0000
1100
1F00
0E00
0000
0600
0600
0F00
0B00
1980
1180
3180
20C0
7FC0
60C0
4060
C060
C060
ENDCHAR
STARTCHAR uni1EB1
ENCODING 7857
SWIDTH 552 0
DWIDTH 10 0
BBX 9 17 1 0
BITMAP
3800
0C00
0000
2200
3E00
1C00
0000
3E00
6700
0300
0300
3F00
6300
C300
C300
E700
7980
ENDCHAR
STARTCHAR uni1EB4
ENCODING 7860
SWIDTH 690 0
DWIDTH 13 0
BBX 11 20 1 0
BITMAP
0E80
1700
0000
1100
1F00
0E00
0000
0600
0600
0F00
0B00
1980
1180
3180
20C0
7FC0
60C0
4060
C060
C060
ENDCHAR
STARTCHAR uni1EB5
ENCODING 7861
SWIDTH 552 0
DWIDTH 10 0
BBX 9 17 1 0
BITMAP
1D00
2E00
0000
2200
3E00
1C00
0000
3E00
6700
0300
0300
3F00
6300
C300
C300
E700
7980
ENDCHAR
STARTCHAR uni1EB6
ENCODING 7862
SWIDTH 690 0
DWIDTH 13 0
BBX 11 20 1 -3
BITMAP
1100
1F00
0E00
0000
0600
0600
0F00
0B00
1980
1180
3180
20C0
7FC0
60C0
4060
C060
C060
0000
0600
0600
ENDCHAR
STARTCHAR uni1EB7
ENCODING 7863
SWIDTH 552 0
DWIDTH 10 0
BBX 9 17 1 -3
BITMAP
1100
1F00
0E00
0000
3E00
6700
0300
0300
3F00
6300
C300
C300
E700
7980
0000
1800
1800
ENDCHAR
STARTCHAR uni1EB8
ENCODING 7864
SWIDTH 542 0
DWIDTH 10 0
BBX 7 16 2 -3
BITMAP
FE
C0
C0
C0
C0
C0
FC
C0
C0
C0
C0
C0
FE
00
30
30
ENDCHAR
STARTCHAR uni1EB9
ENCODING 7865
SWIDTH 557 0
DWIDTH 10 0
BBX 8 13 1 -3
BITMAP
3C
66
C3
C3
FF
C0
C0
E0
73
3E
00
18
18
ENDCHAR
STARTCHAR uni1EBC
ENCODING 7868
SWIDTH 542 0
DWIDTH 10 0
BBX 7 16 2 0
BITMAP
74
B8
00
FE
C0
C0
C0
C0
C0
FC
C0
C0
C0
C0
C0
FE
ENDCHAR
STARTCHAR uni1EBD
ENCODING 7869
SWIDTH 557 0
DWIDTH 10 0
BBX 8 13 1 0
BITMAP
3A
5C
00
3C
66
C3
C3
FF
C0
C0
E0
73
3E
ENDCHAR
STARTCHAR uni1EBE
ENCODING 7870
SWIDTH 542 0
DWIDTH 10 0
BBX 7 19 2 0
BITMAP
1C
30
00
38
6C
00
FE
C0
C0
C0
C0
C0
FC
C0
C0
C0
C0
C0
FE
ENDCHAR
STARTCHAR uni1EBF
ENCODING 7871
SWIDTH 557 0
DWIDTH 10 0
BBX 8 16 1 0
BITMAP
0E
18
00
1C
36
00
3C
66
C3
C3
FF
C0
C0
E0
73
3E
ENDCHAR
STARTCHAR uni1EC0
ENCODING 7872
SWIDTH 542 0
DWIDTH 10 0
BBX 7 19 2 0
BITMAP
70
18
00
38
6C
00
FE
C0
C0
C0
C0
C0
FC
C0
C0
C0
C0
C0
FE
ENDCHAR
STARTCHAR uni1EC1
ENCODING 7873
SWIDTH 557 0
DWIDTH 10 0
BBX 8 16 1 0
BITMAP
38
0C
00
1C
36
00
3C
66
C3
C3
FF
C0
C0
E0
73
3E
ENDCHAR
STARTCHAR uni1EC4
ENCODING 7876
SWIDTH 542 0
DWIDTH 10 0
BBX 7 19 2 0
BITMAP
74
B8
00
38
6C
00
FE
C0
C0
C0
C0
C0
FC
C0
C0
C0
C0
C0
FE
ENDCHAR
STARTCHAR uni1EC5
ENCODING 7877
SWIDTH 557 0
DWIDTH 10 0
BBX 8 16 1 0
BITMAP
3A
5C
00
1C
36
00
3C
66
C3
C3
FF
C0
C0
E0
73
3E
ENDCHAR
STARTCHAR uni1EC6
ENCODING 7878
SWIDTH 542 0
DWIDTH 10 0
BBX 7 19 2 -3
BITMAP
70
D8
00
FE
C0
C0
C0
C0
C0
FC
C0
C0
C0
C0
C0
FE
00
30
30
ENDCHAR
STARTCHAR uni1EC7
ENCODING 7879
SWIDTH 557 0
DWIDTH 10 0
BBX 8 16 1 -3
BITMAP
1C
36
00
3C
66
C3
C3
FF
C0
C0
E0
73
3E
00
18
18
ENDCHAR
STARTCHAR uni1ECA
ENCODING 7882
SWIDTH 288 0
DWIDTH 6 0
BBX 2 16 2 -3
BITMAP
C0
C0
C0
C0
C0
C0
C0
C0
C0
C0
C0
C0
C0
00
C0
C0
ENDCHAR
STARTCHAR uni1ECB
ENCODING 7883
SWIDTH 289 0
DWIDTH 6 0
BBX 2 17 2 -3
BITMAP
C0
C0
00
00
C0
C0
C0
C0
C0
C0
C0
C0
C0
C0
00
C0
C0
ENDCHAR
STARTCHAR uni1ECC
ENCODING 7884
SWIDTH 777 0
DWIDTH 14 0
BBX 12 16 1 -3
BITMAP
0F00
39C0
6060
6060
C030
C030
C030
C030
C030
6060
6060
39C0
0F00
0000
0600
0600
ENDCHAR
STARTCHAR uni1ECD
ENCODING 7885
SWIDTH 614 0
DWIDTH 11 0
BBX 9 13 1 -3
BITMAP
1C00
7700
6300
C180
C180
C180
C180
6300
7700
1C00
0000
0C00
0C00
ENDCHAR
STARTCHAR uni1ED0
ENCODING 7888
SWIDTH 777 0
DWIDTH 14 0
BBX 12 19 1 0
BITMAP
0380
0600
0000
0700
0D80
0000
0F00
39C0
6060
6060
C030
C030
C030
C030
C030
6060
6060
39C0
0F00
ENDCHAR
STARTCHAR uni1ED1
ENCODING 7889
SWIDTH 614 0
DWIDTH 11 0
BBX 9 16 1 0
BITMAP
0E00
1800
0000
1C00
3600
0000
1C00
7700
6300
C180
C180
C180
C180
6300
7700
1C00
ENDCHAR
STARTCHAR uni1ED2
ENCODING 7890
SWIDTH 777 0
DWIDTH 14 0
BBX 12 19 1 0
BITMAP
1C00
0600
0000
0700
0D80
0000
0F00
39C0
6060
6060
C030
C030
C030
C030
C030
6060
6060
39C0
0F00
ENDCHAR
STARTCHAR uni1ED3
ENCODING 7891
SWIDTH 614 0
DWIDTH 11 0
BBX 9 16 1 0
BITMAP
3800
0C00
0000
1C00
3600
0000
1C00
7700
6300
C180
C180
C180
C180
6300
7700
1C00
ENDCHAR
STARTCHAR uni1ED6
ENCODING 7894
SWIDTH 777 0
DWIDTH 14 0
BBX 12 19 1 0
BITMAP
0E80
1700
0000
0700
0D80
0000
0F00
39C0
6060
6060
C030
C030
C030
C030
C030
6060
6060
39C0
0F00
ENDCHAR
STARTCHAR uni1ED7
ENCODING 7895
SWIDTH 614 0
DWIDTH 11 0
BBX 9 16 1 0
BITMAP
1D00
2E00
0000
1C00
3600
0000
1C00
7700
6300
C180
C180
C180
C180
6300
7700
1C00
ENDCHAR
STARTCHAR uni1ED8
ENCODING 7896
SWIDTH 777 0
DWIDTH 14 0
BBX 12 19 1 -3
BITMAP
0700
0D80
0000
0F00
39C0
6060
6060
C030
C030
C030
C030
C030
6060
6060
39C0
0F00
0000
0600
0600
ENDCHAR
STARTCHAR uni1ED9
ENCODING 7897
SWIDTH 614 0
DWIDTH 11 0
BBX 9 16 1 -3
BITMAP
1C00
3600
0000
1C00
7700
6300
C180
C180
C180
C180
6300
7700
1C00
0000
0C00
0C00
ENDCHAR
STARTCHAR uni1EDA
ENCODING 7898
SWIDTH 777 0
DWIDTH 14 0
BBX 13 16 1 0
BITMAP
01C0
0300
0000
0F18
39D8
6068
6070
C030
C030
C030
C030
C030
6060
6060
39C0
0F00
ENDCHAR
STARTCHAR uni1EDB
ENCODING 7899
SWIDTH 614 0
DWIDTH 11 0
BBX 10 13 1 0
BITMAP
0700
0C00
0000
1CC0
77C0
6340
C180
C180
C180
C180
6300
7700
1C00
ENDCHAR
STARTCHAR uni1EDC
ENCODING 7900
SWIDTH 777 0
DWIDTH 14 0
BBX 13 16 1 0
BITMAP
0700
0180
0000
0F18
39D8
6068
6070
C030
C030
C030
C030
C030
6060
6060
39C0
0F00
ENDCHAR
STARTCHAR uni1EDD
ENCODING 7901
SWIDTH 614 0
DWIDTH 11 0
BBX 10 13 1 0
BITMAP
1C00
0600
0000
1CC0
77C0
6340
C180
C180
C180
C180
6300
7700
1C00
ENDCHAR
STARTCHAR uni1EE0
ENCODING 7904
SWIDTH 777 0
DWIDTH 14 0
BBX 13 16 1 0
BITMAP
0740
0B80
0000
0F18
39D8
6068
6070
C030
C030
C030
C030
C030
6060
6060
39C0
0F00
ENDCHAR
STARTCHAR uni1EE1
ENCODING 7905
SWIDTH 614 0
DWIDTH 11 0
BBX 10 13 1 0
BITMAP
0E80
1700
0000
1CC0
77C0
6340
C180
C180
C180
C180
6300
7700
1C00
ENDCHAR
STARTCHAR uni1EE2
ENCODING 7906
SWIDTH 777 0
DWIDTH 14 0
BBX 13 16 1 -3
BITMAP
0F18
39D8
6068
6070
C030
C030
C030
C030
C030
6060
6060
39C0
0F00
0000
0600
0600
ENDCHAR
STARTCHAR uni1EE3
ENCODING 7907
SWIDTH 614 0
DWIDTH 11 0
BBX 10 13 1 -3
BITMAP
1CC0
77C0
6340
C180
C180
C180
C180
6300
7700
1C00
0000
0C00
0C00
ENDCHAR
STARTCHAR uni1EE4
ENCODING 7908
SWIDTH 693 0
DWIDTH 13 0
BBX 9 16 2 -3
BITMAP
C180
C180
C180
C180
C180
C180
C180
C180
C180
C180
6300
7700
1C00
0000
0C00
0C00
ENDCHAR
STARTCHAR uni1EE5
ENCODING 7909
SWIDTH 620 0
DWIDTH 12 0
BBX 8 13 2 -3
BITMAP
C3
C3
C3
C3
C3
C3
C3
C3
E7
7B
00
18
18
ENDCHAR
STARTCHAR uni1EE8
ENCODING 7912
SWIDTH 693 0
DWIDTH 13 0
BBX 10 16 2 0
BITMAP
0700
0C00
0000
C1C0
C1C0
C1C0
C180
C180
C180
C180
C180
C180
C180
6300
7700
1C00
ENDCHAR
STARTCHAR uni1EE9
ENCODING 7913
SWIDTH 620 0
DWIDTH 12 0
BBX 10 13 2 0
BITMAP
0700
0C00
0000
C3C0
C3C0
C340
C380
C300
C300
C300
C300
E700
7B00
ENDCHAR
STARTCHAR uni1EEA
ENCODING 7914
SWIDTH 693 0
DWIDTH 13 0
BBX 10 16 2 0
BITMAP
1C00
0600
0000
C1C0
C1C0
C1C0
C180
C180
C180
C180
C180
C180
C180
6300
7700
1C00
ENDCHAR
STARTCHAR uni1EEB
ENCODING 7915
SWIDTH 620 0
DWIDTH 12 0
BBX 10 13 2 0
BITMAP
1C00
0600
0000
C3C0
C3C0
C340
C380
C300
C300
C300
C300
E700
7B00
ENDCHAR
STARTCHAR uni1EEE
ENCODING 7918
SWIDTH 693 0
DWIDTH 13 0
BBX 10 16 2 0
BITMAP
1D00
2E00
0000
C1C0
C1C0
C1C0
C180
C180
C180
C180
C180
C180
C180
6300
7700
1C00
ENDCHAR
STARTCHAR uni1EEF
ENCODING 7919
SWIDTH 620 0
DWIDTH 12 0
BBX 10 13 2 0
BITMAP
0E80
1700
0000
C3C0
C3C0
C340
C380
C300
C300
C300
C300
E700
7B00
ENDCHAR
STARTCHAR uni1EF0
ENCODING 7920
SWIDTH 693 0
DWIDTH 13 0
BBX 10 16 2 -3
BITMAP
C1C0
C1C0
C1C0
C180
C180
C180
C180
C180
C180
C180
6300
7700
1C00
0000
0C00
0C00
ENDCHAR
STARTCHAR uni1EF1
ENCODING 7921
SWIDTH 620 0
DWIDTH 12 0
BBX 10 13 2 -3
BITMAP
C3C0
C3C0
C340
C380
C300
C300
C300
C300
E700
7B00
0000
1800
1800
ENDCHAR
STARTCHAR Ygrave
ENCODING 7922
SWIDTH 623 0
DWIDTH 12 0
BBX 10 16 1 0
BITMAP
3800
0C00
0000
C0C0
C0C0
6180
3100
3300
1E00
0C00
0C00
0C00
0C00
0C00
0C00
0C00
ENDCHAR
STARTCHAR ygrave
ENCODING 7923
SWIDTH 568 0
DWIDTH 10 0
BBX 8 16 1 -3
BITMAP
70
18
00
C3
C3
C3
62
66
66
34
3C
18
18
10
30
30
ENDCHAR
STARTCHAR uni1EF4
ENCODING 7924
SWIDTH 623 0
DWIDTH 12 0
BBX 10 16 1 -3
BITMAP
C0C0
C0C0
6180
3100
3300
1E00
0C00
0C00
0C00
0C00
0C00
0C00
0C00
0000
0C00
0C00
ENDCHAR
STARTCHAR uni1EF5
ENCODING 7925
SWIDTH 568 0
DWIDTH 10 0
BBX 8 16 1 -6
BITMAP
C3
C3
C3
62
66
66
34
3C
18
18
10
30
30
00
18
18
ENDCHAR
STARTCHAR uni1EF8
ENCODING 7928
SWIDTH 623 0
DWIDTH 12 0
BBX 10 16 1 0
BITMAP
1D00
2E00
0000
C0C0
C0C0
6180
3100
3300
1E00
0C00
0C00
0C00
0C00
0C00
0C00
0C00
ENDCHAR
STARTCHAR uni1EF9
ENCODING 7929
SWIDTH 568 0
DWIDTH 10 0
BBX 8 16 1 -3
BITMAP
3A
5C
00
C3
C3
C3
62
66
66
34
3C
18
18
10
30
30
ENDCHAR
STARTCHAR uni2000
ENCODING 8192
SWIDTH 500 0
DWIDTH 9 0
BBX 1 1 0 0
BITMAP
00
ENDCHAR
STARTCHAR uni2001
ENCODING 8193
SWIDTH 1000 0
DWIDTH 19 0
BBX 1 1 0 0
BITMAP
00
ENDCHAR
STARTCHAR uni2002
ENCODING 8194
SWIDTH 500 0
DWIDTH 9 0
BBX 1 1 0 0
BITMAP
00
ENDCHAR
STARTCHAR uni2003
ENCODING 8195
SWIDTH 1000 0
DWIDTH 19 0
BBX 1 1 0 0
BITMAP
00
ENDCHAR
STARTCHAR uni2004
ENCODING 8196
SWIDTH 333 0
DWIDTH 6 0
BBX 1 1 0 0
BITMAP
00
ENDCHAR
STARTCHAR uni2005
ENCODING 8197
SWIDTH 250 0
DWIDTH 5 0
BBX 1 1 0 0
BITMAP
00
ENDCHAR
STARTCHAR uni2006
ENCODING 8198
SWIDTH 167 0
DWIDTH 3 0
BBX 1 1 0 0
BITMAP
00
ENDCHAR
STARTCHAR uni2007
ENCODING 8199
SWIDTH 633 0
DWIDTH 12 0
BBX 1 1 0 0
BITMAP
00
ENDCHAR
STARTCHAR uni2008
ENCODING 8200
SWIDTH 316 0
DWIDTH 4 0
BBX 1 1 0 0
BITMAP
00
ENDCHAR
STARTCHAR uni2009
ENCODING 8201
SWIDTH 200 0
DWIDTH 4 0
BBX 1 1 0 0
BITMAP
00
ENDCHAR
STARTCHAR uni200A
ENCODING 8202
SWIDTH 100 0
DWIDTH 2 0
BBX 1 1 0 0
BITMAP
00
ENDCHAR
STARTCHAR uni200B
ENCODING 8203
SWIDTH 0 0
DWIDTH 0 0
BBX 1 1 0 0
BITMAP
00
ENDCHAR
STARTCHAR uni2010
ENCODING 8208
SWIDTH 325 0
DWIDTH 6 0
BBX 4 1 1 5
BITMAP
F0
ENDCHAR
STARTCHAR uni2011
ENCODING 8209
SWIDTH 325 0
DWIDTH 6 0
BBX 4 1 1 5
BITMAP
F0
ENDCHAR
STARTCHAR figuredash
ENCODING 8210
SWIDTH 500 0
DWIDTH 10 0
BBX 8 1 1 5
BITMAP
FF
ENDCHAR
STARTCHAR endash
ENCODING 8211
SWIDTH 500 0
DWIDTH 10 0
BBX 8 1 1 5
BITMAP
FF
ENDCHAR
STARTCHAR emdash
ENCODING 8212
SWIDTH 1000 0
DWIDTH 19 0
BBX 17 1 1 5
BITMAP
FFFF80
ENDCHAR
STARTCHAR afii00208
ENCODING 8213
SWIDTH 1000 0
DWIDTH 19 0
BBX 17 1 1 5
BITMAP
FFFF80
ENDCHAR
STARTCHAR quoteleft
ENCODING 8216
SWIDTH 229 0
DWIDTH 4 0
BBX 2 4 1 10
BITMAP
40
80
C0
C0
ENDCHAR
STARTCHAR quoteright
ENCODING 8217
SWIDTH 229 0
DWIDTH 4 0
BBX 2 4 1 10
BITMAP
C0
C0
40
80
ENDCHAR
STARTCHAR quotesinglbase
ENCODING 8218
SWIDTH 229 0
DWIDTH 4 0
BBX 2 4 1 -2
BITMAP
C0
C0
40
80
ENDCHAR
STARTCHAR quotereversed
ENCODING 8219
SWIDTH 229 0
DWIDTH 4 0
BBX 2 4 1 10
BITMAP
C0
C0
80
40
ENDCHAR
STARTCHAR quotedblleft
ENCODING 8220
SWIDTH 373 0
DWIDTH 7 0
BBX 5 4 1 10
BITMAP
48
90
D8
D8
ENDCHAR
STARTCHAR quotedblright
ENCODING 8221
SWIDTH 373 0
DWIDTH 7 0
BBX 5 4 1 10
BITMAP
D8
D8
48
90
ENDCHAR
STARTCHAR quotedblbase
ENCODING 8222
SWIDTH 373 0
DWIDTH 7 0
BBX 5 4 1 -2
BITMAP
D8
D8
48
90
ENDCHAR
STARTCHAR uni201F
ENCODING 8223
SWIDTH 373 0
DWIDTH 7 0
BBX 5 4 1 10
BITMAP
D8
D8
90
48
ENDCHAR
STARTCHAR dagger
ENCODING 8224
SWIDTH 633 0
DWIDTH 12 0
BBX 8 15 2 -2
BITMAP
18
18
18
18
FF
18
18
18
18
18
18
18
18
18
18
ENDCHAR
STARTCHAR daggerdbl
ENCODING 8225
SWIDTH 633 0
DWIDTH 12 0
BBX 8 15 2 -2
BITMAP
18
18
18
18
FF
18
18
18
18
18
FF
18
18
18
18
ENDCHAR
STARTCHAR bullet
ENCODING 8226
SWIDTH 633 0
DWIDTH 12 0
BBX 5 5 4 3
BITMAP
F8
F8
F8
F8
F8
ENDCHAR
STARTCHAR ellipsis
ENCODING 8230
SWIDTH 1000 0
DWIDTH 12 0
BBX 8 2 2 0
BITMAP
C3
C3
ENDCHAR
STARTCHAR perthousand
ENCODING 8240
SWIDTH 1012 0
DWIDTH 19 0
BBX 17 13 1 0
BITMAP
700000
D84000
88C000
898000
890000
DA0000
75C700
0B6D80
122880
322880
622880
436D80
01C700
ENDCHAR
STARTCHAR guilsinglleft
ENCODING 8249
SWIDTH 331 0
DWIDTH 6 0
BBX 5 8 0 1
BITMAP
18
30
60
C0
C0
60
30
18
ENDCHAR
STARTCHAR guilsinglright
ENCODING 8250
SWIDTH 331 0
DWIDTH 6 0
BBX 5 8 1 1
BITMAP
C0
60
30
18
18
30
60
C0
ENDCHAR
STARTCHAR fraction
ENCODING 8260
SWIDTH 36 0
DWIDTH 5 0
BBX 6 13 0 0
BITMAP
04
04
0C
08
18
10
30
20
60
40
C0
80
80
ENDCHAR
STARTCHAR oneinferior
ENCODING 8321
SWIDTH 422 0
DWIDTH 8 0
BBX 4 7 2 -3
BITMAP
30
F0
30
30
30
30
30
ENDCHAR
STARTCHAR twoinferior
ENCODING 8322
SWIDTH 422 0
DWIDTH 8 0
BBX 6 7 1 -3
BITMAP
78
CC
0C
38
60
C0
FC
ENDCHAR
STARTCHAR threeinferior
ENCODING 8323
SWIDTH 422 0
DWIDTH 8 0
BBX 6 7 1 -3
BITMAP
78
CC
0C
38
0C
CC
78
ENDCHAR
STARTCHAR uni20A5
ENCODING 8357
SWIDTH 934 0
DWIDTH 18 0
BBX 14 16 2 -3
BITMAP
0020
0020
0060
DE78
E7DC
C38C
C38C
C38C
C30C
C30C
C30C
C70C
C70C
0C00
0800
0800
ENDCHAR
STARTCHAR uni20A6
ENCODING 8358
SWIDTH 741 0
DWIDTH 14 0
BBX 10 13 2 0
BITMAP
C040
E040
F040
B040
FFC0
9C40
8C40
FFC0
8740
8340
81C0
81C0
80C0
ENDCHAR
STARTCHAR uni20A9
ENCODING 8361
SWIDTH 855 0
DWIDTH 16 0
BBX 14 13 1 0
BITMAP
C00C
C30C
C30C
C78C
DFF8
6598
6CD8
7FF0
68D0
38F0
3060
3060
3060
ENDCHAR
STARTCHAR Euro
ENCODING 8364
SWIDTH 692 0
DWIDTH 13 0
BBX 13 13 -1 0
BITMAP
03F0
0E38
1800
1800
FF80
3000
3000
FF80
3000
1800
1C00
0E38
03F0
ENDCHAR
STARTCHAR uni20AD
ENCODING 8365
SWIDTH 653 0
DWIDTH 12 0
BBX 10 13 2 0
BITMAP
C180
C300
C600
CC00
D800
F000
FFC0
D800
CC00
C600
C300
C180
C0C0
ENDCHAR
STARTCHAR uni2103
ENCODING 8451
SWIDTH 955 0
DWIDTH 18 0
BBX 16 14 1 0
BITMAP
6000
907E
91C7
6300
0300
0600
0600
0600
0600
0600
0300
0380
01C7
007E
ENDCHAR
STARTCHAR uni2109
ENCODING 8457
SWIDTH 799 0
DWIDTH 15 0
BBX 13 14 1 0
BITMAP
6000
93F8
9300
6300
0300
0300
0300
03F0
0300
0300
0300
0300
0300
0300
ENDCHAR
STARTCHAR trademark
ENCODING 8482
SWIDTH 807 0
DWIDTH 15 0
BBX 12 6 2 7
BITMAP
FF30
2330
22D0
22D0
22D0
2210
ENDCHAR
STARTCHAR uni212A
ENCODING 8490
SWIDTH 653 0
DWIDTH 12 0
BBX 10 13 2 0
BITMAP
C180
C300
C600
CC00
D800
F000
F000
D800
CC00
C600
C300
C180
C0C0
ENDCHAR
STARTCHAR uni212B
ENCODING 8491
SWIDTH 690 0
DWIDTH 13 0
BBX 11 16 1 0
BITMAP
0E00
1300
0E00
0600
0600
0F00
0B00
1980
1180
3180
20C0
7FC0
60C0
4060
C060
C060
ENDCHAR
STARTCHAR uni2132
ENCODING 8498
SWIDTH 536 0
DWIDTH 10 0
BBX 7 13 2 0
BITMAP
06
06
06
06
06
06
7E
06
06
06
06
06
FE
ENDCHAR
STARTCHAR universal
ENCODING 8704
SWIDTH 690 0
DWIDTH 13 0
BBX 11 13 1 0
BITMAP
C060
C060
4060
60C0
7FC0
20C0
3180
1180
1980
0B00
0F00
0600
0600
ENDCHAR
STARTCHAR existential
ENCODING 8707
SWIDTH 542 0
DWIDTH 10 0
BBX 7 13 2 0
BITMAP
FE
06
06
06
06
06
7E
06
06
06
06
06
FE
ENDCHAR
STARTCHAR uni2204
ENCODING 8708
SWIDTH 542 0
DWIDTH 10 0
BBX 7 16 2 -1
BITMAP
02
02
FE
06
0E
0E
0E
1E
7E
36
26
66
46
C6
FE
80
ENDCHAR
STARTCHAR minus
ENCODING 8722
SWIDTH 633 0
DWIDTH 12 0
BBX 9 1 2 5
BITMAP
FF80
ENDCHAR
STARTCHAR fraction
ENCODING 8725
SWIDTH 36 0
DWIDTH 5 0
BBX 6 13 0 0
BITMAP
04
04
0C
08
18
10
30
20
60
40
C0
80
80
ENDCHAR
STARTCHAR periodcentered
ENCODING 8729
SWIDTH 316 0
DWIDTH 12 0
BBX 3 3 5 4
BITMAP
E0
E0
E0
ENDCHAR
STARTCHAR uni2236
ENCODING 8758
SWIDTH 316 0
DWIDTH 4 0
BBX 2 10 1 0
BITMAP
C0
C0
00
00
00
00
00
00
C0
C0
ENDCHAR
STARTCHAR uni2259
ENCODING 8793
SWIDTH 633 0
DWIDTH 12 0
BBX 9 7 2 3
BITMAP
1C00
3600
0000
FF80
0000
0000
FF80
ENDCHAR
STARTCHAR uni225A
ENCODING 8794
SWIDTH 633 0
DWIDTH 12 0
BBX 9 7 2 3
BITMAP
3600
1C00
0000
FF80
0000
0000
FF80
ENDCHAR
STARTCHAR notequal
ENCODING 8800
SWIDTH 633 0
DWIDTH 12 0
BBX 9 16 2 -3
BITMAP
0100
0100
0300
0200
0600
0400
FF80
0C00
0800
FF80
1000
3000
2000
6000
4000
4000
ENDCHAR
STARTCHAR equivalence
ENCODING 8801
SWIDTH 633 0
DWIDTH 12 0
BBX 9 5 0 3
BITMAP
FF80
0000
FF80
0000
FF80
ENDCHAR
STARTCHAR uni2262
ENCODING 8802
SWIDTH 633 0
DWIDTH 12 0
BBX 9 16 0 -2
BITMAP
0100
0100
0300
0200
0600
0400
FF80
0C00
FF80
1800
FF80
3000
2000
6000
4000
4000
ENDCHAR
STARTCHAR lessequal
ENCODING 8804
SWIDTH 633 0
DWIDTH 12 0
BBX 10 11 1 -1
BITMAP
00C0
0380
0E00
3800
E000
3800
0E00
0380
00C0
0000
FFC0
ENDCHAR
STARTCHAR greaterequal
ENCODING 8805
SWIDTH 633 0
DWIDTH 12 0
BBX 10 11 1 -1
BITMAP
C000
7000
1C00
0700
01C0
0700
1C00
7000
C000
0000
FFC0
ENDCHAR
STARTCHAR uni226E
ENCODING 8814
SWIDTH 633 0
DWIDTH 12 0
BBX 10 16 1 -2
BITMAP
0080
0080
0180
0100
03C0
0380
0E00
3E00
E400
3C00
0E00
1B80
10C0
3000
2000
2000
ENDCHAR
STARTCHAR uni226F
ENCODING 8815
SWIDTH 633 0
DWIDTH 12 0
BBX 10 16 1 -2
BITMAP
0080
0080
0180
0100
C300
7200
1E00
0700
05C0
0F00
1C00
7800
D000
3000
2000
2000
ENDCHAR
STARTCHAR uni2270
ENCODING 8816
SWIDTH 633 0
DWIDTH 12 0
BBX 10 16 1 -3
BITMAP
0080
0080
0180
01C0
0380
0E00
3A00
E600
3C00
0E00
0B80
18C0
1000
FFC0
2000
2000
ENDCHAR
STARTCHAR uni2271
ENCODING 8817
SWIDTH 633 0
DWIDTH 12 0
BBX 10 16 1 -3
BITMAP
0080
0080
0180
C100
7300
1E00
0700
07C0
0700
1C00
7800
D800
1000
FFC0
2000
2000
ENDCHAR
STARTCHAR fi
ENCODING -1
SWIDTH 645 0
DWIDTH 12 0
BBX 9 14 1 0
BITMAP
1D80
3180
6000
6000
FF80
6180
6180
6180
6180
6180
6180
6180
6180
6180
ENDCHAR
STARTCHAR fl
ENCODING -1
SWIDTH 645 0
DWIDTH 12 0
BBX 9 14 1 0
BITMAP
1F80
3180
6180
6180
FD80
6180
6180
6180
6180
6180
6180
6180
6180
6180
ENDCHAR
ENDFONT
